<svg width="80" height="80" viewBox="0 0 80 80" fill="none" xmlns="http://www.w3.org/2000/svg">
<g clip-path="url(#clip0_42_189)">
<path d="M80 40C80 62.0923 62.0923 80 40 80C17.9077 80 0 62.0923 0 40C0 17.9077 17.9077 0 40 0C62.0923 0 80 17.9077 80 40ZM67.1877 36.4185L61.92 35.6554C57.9262 44.9908 49.9754 50.4554 49.9754 50.4554C49.9754 50.4554 47.2 49.1631 44 46.5846C48.08 43.6246 51.9077 39.7908 53.6615 35.12L51.1262 30.7138L45.3785 31.1938C44.8185 35.9138 42.5908 39.7662 40 42.7569C37.4092 39.7723 35.1754 35.9138 34.6215 31.1938L28.8738 30.7138L26.3385 35.12C28.0923 39.7908 31.92 43.6185 36 46.5846C32.8 49.1631 30.0246 50.4554 30.0246 50.4554C30.0246 50.4554 22.0738 44.9969 18.08 35.6554L12.8123 36.4185L10.9846 41.0523C17.1569 48.5477 30.0246 53.9262 30.0246 53.9262C30.0246 53.9262 34.7138 52.32 40 49.1938C45.2862 52.3139 49.9754 53.9262 49.9754 53.9262C49.9754 53.9262 62.8431 48.5477 69.0154 41.0523L67.1877 36.4185Z" fill="white"/>
</g>
<defs>
<clipPath id="clip0_42_189">
<rect width="80" height="80" fill="white"/>
</clipPath>
</defs>
</svg>
