<svg width="310" height="95" viewBox="0 0 310 95" fill="none" xmlns="http://www.w3.org/2000/svg">
<path d="M310 57.8016L308.19 53.9282L308.186 53.945V53.9408L307.27 56.3079L306.161 53.9282L306.156 53.945V53.9408L304.659 57.8016H304.975L305.899 55.4303L306.988 57.7594L307.009 57.8016L307.933 55.4303L309.038 57.8016H310Z" fill="#000033"/>
<path d="M305.252 54.253V54.0421H301.805V54.253H303.075V57.8016H304.033V54.253H305.252Z" fill="#000033"/>
<path d="M130.19 49.0041C130.19 49.0041 140.376 45.6117 151.861 39.021C163.346 45.6117 173.532 49.0041 173.532 49.0041C173.532 49.0041 201.481 37.6455 214.895 21.827L210.92 12.0422L199.481 10.4346C190.802 30.1476 173.532 44.3628 173.532 44.3628C173.532 44.3628 166.92 40.7805 159.561 34.1898C168.785 27.848 177.591 19.5232 181.536 9.30378L176.026 0L163.549 1.01266C162.338 10.9747 157.494 19.4768 151.861 26.2447C146.228 19.4768 141.388 10.9747 140.173 1.01266L127.697 0L122.186 9.30378C126.131 19.5189 134.937 27.848 144.161 34.1898C136.798 40.7847 130.19 44.3628 130.19 44.3628C130.19 44.3628 112.92 30.1434 104.241 10.4346L92.8021 12.0422L88.8274 21.827C102.241 37.6455 130.19 49.0041 130.19 49.0041Z" fill="#000033"/>
<path d="M107.992 79.6876L110.621 79.7003C117.595 79.7003 124.667 74.156 124.667 68.3332C124.667 62.5104 117.599 57.7889 110.621 57.7889H92.9835V93.3205H102.055V59.772C104.777 59.772 108.84 59.7805 110.621 59.7805C114.848 59.7805 115.591 63.3121 115.591 68.3332C115.591 73.3543 114.861 77.5821 110.798 77.7087H102.578L120.473 93.3163H123.519L107.992 79.6876Z" fill="#000033"/>
<path d="M48.6159 57.7889L39.6539 80.8057L28.8312 57.7889L19.8438 80.869L9.07171 57.7889H0L16.9071 94.0082L25.8987 70.9155L36.7468 94.0082L50.7678 57.7889H48.6159Z" fill="#000033"/>
<path d="M230.806 59.7763V57.7889H205.443V93.3163H230.806V91.2994H214.519V76.1686L226.025 76.1728V74.1855H214.519V59.7678L230.806 59.7763Z" fill="#000033"/>
<path d="M300.27 57.7889H297.219L278.135 77.5146V57.7889H269.063V93.3163H278.135V80.7762L282.624 76.1095L294.65 93.3163H303.721L287.899 70.6328L300.27 57.7889Z" fill="#000033"/>
<path d="M129.223 57.7889V93.3163H138.299V80.7762L141.924 77.0125L153.316 93.3163H162.472L147.24 71.4851L160.43 57.7889H157.384L138.299 77.5146V57.7889H129.223Z" fill="#000033"/>
<path d="M182.552 57.7889H165.966V93.3205H182.552C192.366 93.3205 201.738 85.3796 201.738 75.561C201.738 65.7425 192.366 57.7889 182.552 57.7889ZM182.552 91.3416H175.037V59.7763H182.552C188.371 59.7763 192.666 66.8437 192.666 75.5568C192.666 84.2699 188.371 91.3416 182.552 91.3416Z" fill="#000033"/>
<path d="M89.0755 75.561C89.0755 65.3712 79.4004 57.1096 69.2106 57.1096C59.0207 57.1096 49.3456 65.3712 49.3456 75.561C49.3456 85.7509 59.0207 94.0125 69.2106 94.0125C79.4004 94.0125 89.0755 85.7509 89.0755 75.561ZM58.4174 75.561C58.4174 66.5104 63.1684 59.1011 69.2106 59.1011C75.2528 59.1011 80.0038 66.5146 80.0038 75.561C80.0038 84.6074 75.2528 92.0209 69.2106 92.0209C63.1684 92.0209 58.4174 84.6074 58.4174 75.561Z" fill="#000033"/>
<path d="M254.076 91.1939C253.245 91.3964 252.426 91.5061 251.641 91.5061C250.772 91.5061 249.924 91.3669 249.11 91.118C244.422 89.4133 241.224 83.1011 241.224 75.561C241.224 68.021 244.426 61.7087 249.11 60.0041C249.924 59.7594 250.772 59.6201 251.641 59.6201C252.426 59.6201 253.24 59.7298 254.076 59.9282C256.629 60.7172 259 62.6708 260.89 65.3627L263.979 62.4134C260.751 59.3839 256.418 57.5104 251.641 57.5104C241.675 57.5104 232.177 65.5906 232.177 75.561C232.177 85.5315 241.671 93.6074 251.641 93.6074C256.612 93.6074 261.114 91.5948 264.375 88.3458L261.19 85.3036C259.266 88.2277 256.764 90.3627 254.072 91.1939H254.076Z" fill="#000033"/>
</svg>
