<svg width="600" height="196" viewBox="0 0 600 196" fill="none" xmlns="http://www.w3.org/2000/svg">
<path d="M12.0764 91.2062C12.0764 90.9966 12.0764 90.7869 12.1114 90.5597C12.1289 90.3326 12.1463 90.1229 12.1813 89.9133C12.1987 89.7036 12.2337 89.6162 12.2686 89.6162C12.9675 89.5289 13.6315 89.4415 14.2954 89.3367C14.9419 89.2319 15.5709 89.127 16.1824 89.0047C16.2174 88.3932 16.2523 87.6943 16.2698 86.8906C16.2872 86.0869 16.3047 85.2657 16.3397 84.3921C16.3571 83.5184 16.3746 82.6623 16.3746 81.8236V48.5915H13.9285C11.3251 48.5915 9.10616 49.1506 7.28904 50.2513C5.47193 51.3521 3.88196 52.8197 2.48418 54.6543C2.44924 54.6893 2.30946 54.7242 2.06485 54.7242C1.82024 54.7242 1.69793 54.7067 1.69793 54.6543C1.66299 54.532 1.62804 54.2175 1.61057 53.7108C1.5931 53.2041 1.57563 52.5926 1.54068 51.9112C1.50574 51.2298 1.50574 50.4785 1.50574 49.7097C1.50574 48.9409 1.50574 48.2071 1.54068 47.5256C1.55815 46.8442 1.57563 46.2676 1.61057 45.7784C1.62804 45.3067 1.66299 45.0446 1.69793 44.9922H2.23957C3.25296 45.2717 4.49349 45.5163 5.94368 45.6911C7.39388 45.8658 8.80913 45.9706 10.1894 45.9706H32.7636C34.1439 45.9706 35.5591 45.8833 37.0093 45.6911C38.4595 45.4989 39.6651 45.2717 40.6435 44.9922H41.1852C41.1852 44.9922 41.2551 45.2892 41.2725 45.7784C41.29 46.2502 41.3075 46.8442 41.3424 47.5256C41.3599 48.2071 41.3774 48.9409 41.3774 49.7097C41.3774 50.4785 41.3774 51.2123 41.3424 51.9112C41.3249 52.6101 41.3075 53.2041 41.2725 53.7108C41.2376 54.2175 41.2201 54.532 41.1852 54.6543C41.1852 54.6893 41.0629 54.7242 40.8182 54.7242C40.5736 54.7242 40.4339 54.7067 40.3814 54.6543C39.0361 52.8197 37.4461 51.3521 35.6115 50.2513C33.7769 49.1506 31.558 48.5915 28.9546 48.5915H26.5609C26.4736 49.7796 26.4386 51.09 26.4386 52.5577V89.0746C27.2598 89.162 27.9762 89.2493 28.6052 89.3542C29.2342 89.459 29.8981 89.5464 30.597 89.6337V90.5772C30.597 90.8044 30.597 91.014 30.562 91.2237C30.5446 91.4334 30.5096 91.5207 30.4747 91.5207H12.1463C12.1463 91.5207 12.0764 91.4159 12.0764 91.2237V91.2062Z" fill="white"/>
<path d="M43.9108 91.2412C43.8933 91.049 43.8933 90.8568 43.9108 90.6646C43.9283 90.455 43.9458 90.2628 43.9632 90.088C43.9807 89.8958 44.0156 89.8085 44.0506 89.8085L47.1082 89.3193C47.1432 88.3408 47.1781 87.2051 47.1781 85.8947V56.5414C47.1781 55.2309 47.1781 53.9729 47.1432 52.7499C47.1257 51.5268 47.0908 50.2514 47.0558 48.906C46.4792 48.6963 45.99 48.5565 45.5532 48.4517C45.1164 48.3469 44.5922 48.2246 43.9283 48.0499C43.8933 47.7179 43.8584 47.4733 43.8584 47.2811C43.8584 47.0889 43.8584 46.9316 43.8933 46.7569C43.9108 46.5997 43.9458 46.5123 43.9807 46.5123C45.361 46.2327 46.5666 45.9881 47.58 45.7785C48.5934 45.5688 49.5543 45.3766 50.428 45.2019C51.3016 45.0272 52.1752 44.835 53.0663 44.6253C53.9399 44.4156 54.9707 44.1885 56.1588 43.9439C56.2462 43.9089 56.351 43.9439 56.4908 44.0662C56.6306 44.1885 56.7005 44.2933 56.7005 44.3632V63.1983H56.8752C58.1856 61.6432 59.8455 60.3678 61.8548 59.3369C63.8641 58.3235 66.0481 57.7994 68.3719 57.7994C71.2199 57.7994 73.4389 58.5332 75.0288 59.9659C76.6188 61.4161 77.4051 63.9321 77.4051 67.5139V89.2144L80.5326 89.7561C80.5326 89.7561 80.6025 89.8434 80.6025 90.0356C80.6025 90.2278 80.6025 90.42 80.5675 90.6122C80.5501 90.8219 80.5326 91.0141 80.4977 91.1888C80.4802 91.3635 80.4452 91.4683 80.4103 91.4683H64.6329C64.6329 91.4683 64.563 91.381 64.5455 91.1888C64.528 90.9966 64.528 90.8044 64.5455 90.6122C64.563 90.4025 64.5979 90.2103 64.6329 90.0356C64.6678 89.8434 64.7202 89.7561 64.7552 89.7561L67.7604 89.2668C67.7953 88.0088 67.8128 86.7858 67.8128 85.6326V68.5972C67.8128 66.6054 67.4808 65.1552 66.7994 64.2816C66.118 63.4079 64.9299 62.9711 63.2176 62.9711C61.8373 62.9711 60.5968 63.1983 59.496 63.6351C58.3953 64.0719 57.4867 64.6135 56.7354 65.2251V89.3193L59.7931 89.7386C59.7931 89.7386 59.863 89.826 59.863 90.0181V90.5947C59.863 90.8044 59.828 91.084 59.7406 91.4509H43.9632C43.9632 91.4509 43.8933 91.3635 43.8759 91.1713L43.9108 91.2412Z" fill="white"/>
<path d="M113.049 84.427C112.769 85.0385 112.297 85.7898 111.651 86.6809C111.005 87.572 110.113 88.4456 109.03 89.2843C107.929 90.123 106.567 90.8393 104.959 91.4159C103.352 92.01 101.447 92.307 99.2457 92.307C96.59 92.307 94.2662 91.9051 92.2394 91.0839C90.2301 90.2627 88.5353 89.1445 87.1899 87.6943C85.8445 86.2441 84.8312 84.5144 84.1323 82.5051C83.4334 80.4783 83.0839 78.2593 83.0839 75.8132C83.0839 73.0002 83.5033 70.4842 84.3419 68.2652C85.1806 66.0462 86.3163 64.1592 87.7315 62.6042C89.1643 61.0492 90.8591 59.8785 92.7985 59.0573C94.7554 58.2361 96.852 57.8343 99.0885 57.8343C104.016 57.8343 107.667 59.2146 110.044 61.9577C112.402 64.7183 113.433 68.5098 113.101 73.3671H92.6063C92.6412 75.6734 92.9557 77.6303 93.5323 79.2378C94.1089 80.8452 94.8602 82.1731 95.8212 83.2214C96.7822 84.2698 97.8829 85.0385 99.1234 85.5103C100.364 85.982 101.727 86.2266 103.194 86.2266C104.452 86.2266 105.588 86.1043 106.584 85.8772C107.58 85.6501 108.471 85.3356 109.24 84.9686C110.009 84.5843 110.708 84.1824 111.319 83.7281C111.931 83.2913 112.455 82.8545 112.909 82.4352C112.996 82.4002 113.049 82.4352 113.084 82.5924C113.119 82.7322 113.154 82.9244 113.154 83.169C113.154 83.4136 113.154 83.6582 113.119 83.9028C113.101 84.1475 113.066 84.3396 113.031 84.462L113.049 84.427ZM98.9837 60.2105C97.2714 60.2105 95.8387 61.0317 94.668 62.6741C93.4974 64.3165 92.8509 67.0771 92.6762 70.9734L103.631 70.2396C103.631 66.5879 103.247 64.002 102.496 62.4819C101.744 60.9618 100.574 60.193 98.9837 60.193V60.2105Z" fill="white"/>
<path d="M128.879 101.061C128.914 100.082 128.949 98.9464 128.949 97.636V70.2396C128.949 68.9291 128.949 67.6537 128.914 66.4131C128.896 65.1726 128.861 63.8797 128.826 62.5343C128.215 62.3771 127.726 62.2373 127.359 62.1324C126.992 62.0276 126.468 61.9053 125.769 61.7306C125.734 61.3986 125.716 61.154 125.716 60.9618C125.716 60.7696 125.716 60.6124 125.751 60.4376C125.769 60.2804 125.804 60.193 125.839 60.193C127.219 59.9135 128.425 59.6689 129.438 59.4592C130.451 59.2495 131.412 59.0573 132.321 58.8826C133.212 58.7079 134.12 58.5157 135.012 58.306C135.903 58.0964 136.951 57.8518 138.139 57.5722L138.681 58.009L138.558 61.1889H138.733C139.747 60.3328 141.039 59.564 142.612 58.8651C144.184 58.1663 145.844 57.8343 147.592 57.8343C149.95 57.8343 152.012 58.2012 153.742 58.935C155.472 59.6689 156.904 60.7172 158.057 62.08C159.193 63.4429 160.049 65.1027 160.591 67.0247C161.133 68.9641 161.412 71.1306 161.412 73.5418C161.412 76.8091 160.975 79.6222 160.102 81.9809C159.228 84.3397 157.988 86.2965 156.398 87.8166C154.808 89.3367 152.886 90.4724 150.614 91.2062C148.343 91.9401 145.809 92.307 142.996 92.307C142.297 92.307 141.581 92.272 140.83 92.2196C140.078 92.1672 139.31 92.0449 138.541 91.8877V100.938C139.187 101.061 139.816 101.165 140.41 101.27C141.005 101.375 141.616 101.462 142.28 101.55C142.315 101.55 142.332 101.637 142.332 101.829C142.332 102.022 142.332 102.214 142.297 102.406C142.28 102.616 142.263 102.808 142.228 102.983C142.21 103.175 142.175 103.262 142.14 103.262H125.751C125.751 103.262 125.629 103.175 125.629 102.983V102.406C125.629 102.196 125.646 102.004 125.699 101.829C125.734 101.655 125.786 101.55 125.821 101.55L128.879 101.061ZM142.996 89.9308C144.551 89.9308 145.862 89.6687 146.945 89.127C148.028 88.6029 148.884 87.7467 149.548 86.5586C150.195 85.3705 150.667 83.8155 150.946 81.8761C151.226 79.9366 151.383 77.5779 151.383 74.8173C151.383 72.2489 151.208 70.1522 150.841 68.5448C150.474 66.9373 149.95 65.6793 149.251 64.7533C148.553 63.8273 147.731 63.1983 146.77 62.8663C145.809 62.5343 144.744 62.3421 143.555 62.3421C142.612 62.3421 141.703 62.4819 140.83 62.744C139.956 63.0061 139.187 63.3031 138.541 63.6351V88.3408C139.065 88.7951 139.747 89.162 140.568 89.4765C141.389 89.791 142.193 89.9308 143.014 89.9308H142.996Z" fill="white"/>
<path d="M181.47 92.307C179.058 92.307 176.84 91.9051 174.778 91.1189C172.716 90.3151 170.916 89.1969 169.361 87.7293C167.806 86.2616 166.601 84.4619 165.727 82.3478C164.854 80.2337 164.417 77.84 164.417 75.2017C164.417 72.5634 164.854 70.1522 165.71 68.0206C166.566 65.8715 167.754 64.0544 169.257 62.5518C170.759 61.0492 172.541 59.8785 174.568 59.0573C176.612 58.2361 178.814 57.8343 181.173 57.8343C183.531 57.8343 185.82 58.2187 187.899 59.0049C189.979 59.7737 191.796 60.8919 193.351 62.3596C194.906 63.8272 196.111 65.6269 196.985 67.741C197.859 69.8552 198.295 72.2489 198.295 74.9046C198.295 77.5604 197.859 79.9541 197.02 82.1207C196.164 84.2872 194.993 86.1218 193.508 87.6244C192.023 89.127 190.241 90.2977 188.196 91.1189C186.135 91.9401 183.898 92.3419 181.505 92.3419L181.47 92.307ZM181.47 89.9133C182.57 89.9133 183.549 89.6687 184.405 89.1445C185.261 88.6378 185.977 87.7991 186.537 86.646C187.096 85.4928 187.55 83.9727 187.847 82.1032C188.144 80.2337 188.301 77.9273 188.301 75.1667C188.301 72.2489 188.144 69.8202 187.847 67.9157C187.533 66.0113 187.078 64.4737 186.467 63.3206C185.855 62.1674 185.104 61.3462 184.213 60.8919C183.322 60.4202 182.291 60.193 181.155 60.193C180.019 60.193 179.093 60.4551 178.255 60.9618C177.416 61.4685 176.7 62.3072 176.106 63.4603C175.512 64.6135 175.075 66.1336 174.795 68.0206C174.516 69.9076 174.358 72.2139 174.358 74.9396C174.358 77.8225 174.516 80.2337 174.813 82.1556C175.11 84.0776 175.581 85.6326 176.193 86.7858C176.805 87.9389 177.556 88.7601 178.429 89.2144C179.303 89.6861 180.316 89.9133 181.452 89.9133H181.47Z" fill="white"/>
<path d="M221.411 73.9612C220.887 75.5861 220.293 77.4032 219.664 79.3776C219.035 81.3519 218.389 83.4311 217.742 85.5802C217.096 87.7468 216.502 89.7735 215.96 91.6955H210.212L200.672 60.7522C200.27 60.6299 199.903 60.525 199.571 60.4551C199.239 60.3678 198.872 60.2979 198.47 60.2105C198.435 60.2105 198.418 60.1232 198.418 59.931V59.3544C198.418 59.1447 198.418 58.97 198.453 58.8127C198.47 58.6555 198.505 58.5681 198.54 58.5681H214.195C214.195 58.5681 214.265 58.6555 214.283 58.8127C214.3 58.97 214.3 59.1622 214.283 59.3544C214.265 59.564 214.23 59.7562 214.195 59.931C214.16 60.1057 214.108 60.2105 214.073 60.2105L211.015 60.6997L213.636 69.3834C213.759 69.8377 213.968 70.5541 214.248 71.5151C214.527 72.4935 214.842 73.5418 215.191 74.6426C215.541 75.7433 215.855 76.8266 216.17 77.9099C216.467 78.9932 216.711 79.8318 216.869 80.4434H216.991C217.148 79.8318 217.393 78.9932 217.725 77.9448C218.057 76.879 218.389 75.7957 218.756 74.6775C219.122 73.5593 219.454 72.4586 219.769 71.4102C220.066 70.3444 220.328 69.4708 220.538 68.7894L221.708 64.928L220.415 60.7696L217.795 60.228C217.795 60.228 217.725 60.1406 217.707 59.9484C217.69 59.7562 217.672 59.564 217.672 59.3719C217.672 59.1797 217.69 58.9875 217.742 58.8302C217.777 58.673 217.83 58.5856 217.864 58.5856H234.061C234.061 58.5856 234.131 58.673 234.149 58.8302C234.166 58.9875 234.184 59.1797 234.184 59.3719C234.184 59.564 234.166 59.7737 234.131 59.9484C234.096 60.1232 234.026 60.228 233.956 60.228L230.776 60.7172L233.345 69.4009C233.467 69.8552 233.677 70.5716 233.991 71.5325C234.288 72.511 234.62 73.5593 234.935 74.6601C235.267 75.7608 235.581 76.8441 235.913 77.9274C236.245 79.0106 236.49 79.8493 236.647 80.4608H236.769C236.927 79.8493 237.171 79.0106 237.503 77.9623C237.835 76.8965 238.185 75.8132 238.552 74.695C238.919 73.5768 239.25 72.476 239.565 71.4277C239.879 70.3619 240.124 69.4883 240.334 68.8069C240.666 67.7061 240.928 66.7976 241.155 66.0812C241.382 65.3648 241.557 64.7358 241.697 64.1942C241.836 63.6351 241.976 63.1109 242.133 62.6042C242.273 62.0975 242.43 61.5209 242.588 60.857L239.093 60.2455C239.093 60.2455 238.971 60.1581 238.971 59.9659V59.3893C238.971 59.1797 238.988 59.0049 239.023 58.8477C239.058 58.6904 239.111 58.6031 239.146 58.6031H247.882C247.882 58.6031 247.934 58.6904 247.934 58.8477C247.934 59.0049 247.917 59.1971 247.882 59.3893C247.847 59.599 247.812 59.7912 247.794 59.9659C247.777 60.1406 247.742 60.2455 247.707 60.2455C247.13 60.4551 246.397 60.6823 245.506 60.9094C245.139 61.9752 244.719 63.2157 244.248 64.6659C243.776 66.1161 243.164 67.9507 242.378 70.2046C242.098 71.0957 241.679 72.3712 241.155 73.9961C240.631 75.621 240.037 77.4381 239.408 79.4474C238.779 81.4393 238.132 83.5185 237.486 85.6501C236.839 87.7992 236.245 89.8259 235.704 91.7304H230.025L223.001 69.1039L222.634 70.2046C222.355 71.0957 221.936 72.3712 221.411 73.9961V73.9612Z" fill="white"/>
<path d="M277.357 84.427C277.078 85.0385 276.606 85.7898 275.959 86.6809C275.313 87.572 274.422 88.4456 273.339 89.2843C272.238 90.123 270.875 90.8393 269.268 91.4159C267.66 92.01 265.756 92.307 263.554 92.307C260.898 92.307 258.575 91.9051 256.548 91.0839C254.538 90.2627 252.844 89.1445 251.498 87.6943C250.153 86.2441 249.14 84.5144 248.441 82.5051C247.742 80.4783 247.392 78.2593 247.392 75.8132C247.392 73.0002 247.812 70.4842 248.65 68.2652C249.489 66.0462 250.625 64.1592 252.04 62.6042C253.473 61.0492 255.167 59.8785 257.107 59.0573C259.064 58.2361 261.16 57.8343 263.397 57.8343C268.324 57.8343 271.976 59.2146 274.352 61.9577C276.711 64.7183 277.742 68.5098 277.41 73.3671H256.915C256.95 75.6734 257.264 77.6303 257.841 79.2378C258.417 80.8452 259.169 82.1731 260.13 83.2214C261.091 84.2698 262.191 85.0385 263.432 85.5103C264.672 85.982 266.035 86.2266 267.503 86.2266C268.761 86.2266 269.897 86.1043 270.892 85.8772C271.888 85.6501 272.779 85.3356 273.548 84.9686C274.317 84.5843 275.016 84.1824 275.627 83.7281C276.239 83.2913 276.763 82.8545 277.217 82.4352C277.305 82.4002 277.357 82.4352 277.392 82.5924C277.427 82.7322 277.462 82.9244 277.462 83.169C277.462 83.4136 277.462 83.6582 277.427 83.9028C277.41 84.1475 277.375 84.3396 277.34 84.462L277.357 84.427ZM263.292 60.2105C261.58 60.2105 260.147 61.0317 258.976 62.6741C257.806 64.3165 257.159 67.0771 256.985 70.9734L267.94 70.2396C267.94 66.5879 267.555 64.002 266.804 62.4819C266.053 60.9618 264.882 60.193 263.292 60.193V60.2105Z" fill="white"/>
<path d="M280.083 91.2412C280.065 91.049 280.065 90.8568 280.083 90.6646C280.1 90.4549 280.118 90.2627 280.135 90.088C280.153 89.8958 280.188 89.8085 280.223 89.8085L283.28 89.3192C283.315 88.3408 283.35 87.2051 283.35 85.8947V70.2396C283.35 68.9292 283.35 67.6712 283.315 66.4481C283.298 65.225 283.263 63.9321 283.228 62.5867C282.651 62.3771 282.162 62.2373 281.725 62.1325C281.288 62.0276 280.764 61.9053 280.1 61.7306C280.065 61.3986 280.03 61.154 280.03 60.9618C280.03 60.7696 280.03 60.6124 280.065 60.4377C280.083 60.2804 280.118 60.193 280.153 60.193C281.533 59.9135 282.739 59.6689 283.735 59.4592C284.73 59.2495 285.674 59.0574 286.548 58.8826C287.421 58.7079 288.295 58.5157 289.151 58.306C290.007 58.0964 291.02 57.8692 292.209 57.6421C292.296 57.6072 292.401 57.6421 292.541 57.7644C292.68 57.8867 292.75 57.9915 292.75 58.0789L292.628 65.2949H292.873C293.274 64.3165 293.781 63.373 294.375 62.447C294.969 61.5209 295.633 60.7172 296.384 60.0358C297.136 59.3369 297.939 58.7778 298.796 58.3585C299.652 57.9217 300.543 57.712 301.486 57.712C302.185 57.712 302.744 57.7644 303.199 57.8692C303.653 57.9741 304.055 58.1488 304.422 58.3934C304.457 58.4284 304.492 58.8652 304.492 59.6689C304.492 60.4726 304.474 61.3812 304.422 62.3596C304.387 63.338 304.334 64.2291 304.299 65.0154C304.264 65.8191 304.212 66.2035 304.177 66.2035H303.688C303.321 65.9938 302.814 65.7842 302.15 65.557C301.504 65.3299 300.718 65.225 299.826 65.225C298.481 65.225 297.223 65.4347 296.07 65.8366C294.899 66.2384 293.851 66.9024 292.925 67.7935V89.3192C293.502 89.4066 294.113 89.4765 294.76 89.5639C295.406 89.6512 296.035 89.7211 296.647 89.8085C296.681 89.8085 296.716 89.8958 296.716 90.088V90.6646C296.716 90.8743 296.681 91.1538 296.594 91.5207H280.135C280.135 91.5207 280.065 91.4334 280.048 91.2412H280.083Z" fill="white"/>
<path d="M334.299 92.307C331.888 92.307 329.669 91.9051 327.608 91.1189C325.546 90.3151 323.746 89.1969 322.191 87.7293C320.636 86.2616 319.431 84.4619 318.557 82.3478C317.683 80.2337 317.246 77.84 317.246 75.2017C317.246 72.5634 317.683 70.1522 318.539 68.0206C319.396 65.8715 320.584 64.0544 322.086 62.5518C323.589 61.0492 325.371 59.8785 327.398 59.0573C329.442 58.2361 331.644 57.8343 334.002 57.8343C336.361 57.8343 338.65 58.2187 340.729 59.0049C342.808 59.7737 344.625 60.8919 346.18 62.3596C347.736 63.8272 348.941 65.6269 349.815 67.741C350.688 69.8552 351.125 72.2489 351.125 74.9046C351.125 77.5604 350.688 79.9541 349.85 82.1207C348.994 84.2872 347.823 86.1218 346.338 87.6244C344.853 89.127 343.07 90.2977 341.026 91.1189C338.964 91.9401 336.728 92.3419 334.334 92.3419L334.299 92.307ZM334.299 89.9133C335.4 89.9133 336.379 89.6687 337.235 89.1445C338.091 88.6378 338.807 87.7991 339.366 86.646C339.925 85.4928 340.38 83.9727 340.677 82.1032C340.974 80.2337 341.131 77.9273 341.131 75.1667C341.131 72.2489 340.974 69.8202 340.677 67.9157C340.362 66.0113 339.908 64.4737 339.296 63.3206C338.685 62.1674 337.934 61.3462 337.042 60.8919C336.151 60.4202 335.121 60.193 333.985 60.193C332.849 60.193 331.923 60.4551 331.084 60.9618C330.246 61.4685 329.529 62.3072 328.935 63.4603C328.341 64.6135 327.905 66.1336 327.625 68.0206C327.345 69.9076 327.188 72.2139 327.188 74.9396C327.188 77.8225 327.345 80.2337 327.642 82.1556C327.939 84.0776 328.411 85.6326 329.023 86.7858C329.634 87.9389 330.386 88.7601 331.259 89.2144C332.133 89.6861 333.146 89.9133 334.282 89.9133H334.299Z" fill="white"/>
<path d="M353.589 91.2412C353.571 91.049 353.571 90.8568 353.589 90.6646C353.606 90.4724 353.641 90.2628 353.676 90.088C353.711 89.9133 353.763 89.8085 353.798 89.8085L356.734 89.3193C356.821 88.3408 356.856 87.1527 356.856 85.7724V62.0626H352.523C352.523 62.0626 352.453 61.9578 352.453 61.7306V61.0142C352.453 60.7522 352.453 60.5076 352.488 60.2979C352.505 60.0708 352.54 59.9659 352.575 59.9659L356.856 58.341V57.3101C356.856 54.9514 357.31 52.9246 358.236 51.2473C359.145 49.5699 360.333 48.2071 361.783 47.1588C363.233 46.093 364.823 45.3242 366.553 44.835C368.283 44.3457 369.995 44.1011 371.655 44.1011C373.035 44.1011 374.328 44.1885 375.534 44.3457C376.739 44.503 377.595 44.6952 378.137 44.8874C378.172 44.8874 378.224 45.1669 378.259 45.7086C378.294 46.2502 378.329 46.8443 378.329 47.4733C378.329 48.1023 378.312 48.6789 378.259 49.2205C378.224 49.7447 378.172 50.0242 378.137 50.0242H377.595C376.897 49.3253 376.093 48.6963 375.149 48.1372C374.206 47.5606 373.07 47.2811 371.725 47.2811C368.265 47.2811 366.518 49.2729 366.518 53.2741V58.5856H373.856C373.856 58.5856 373.961 58.7603 373.944 59.1272C373.926 59.4942 373.874 59.896 373.787 60.3678C373.699 60.8395 373.629 61.2414 373.542 61.6083C373.455 61.9752 373.402 62.1499 373.367 62.1499H366.448V89.3018C367.147 89.4241 367.776 89.5115 368.37 89.5813C368.964 89.6512 369.611 89.7386 370.292 89.8609C370.327 89.8609 370.345 89.9483 370.345 90.1405C370.345 90.3326 370.345 90.5248 370.31 90.717C370.275 90.9092 370.275 91.1189 370.257 91.2936C370.24 91.4683 370.205 91.5732 370.17 91.5732H353.659C353.659 91.5732 353.589 91.4858 353.571 91.2936L353.589 91.2412Z" fill="white"/>
<path d="M390.979 102.406C390.28 102.406 389.529 102.336 388.725 102.214C387.904 102.091 387.362 101.969 387.065 101.847C386.943 101.812 386.856 101.515 386.821 100.991C386.786 100.467 386.768 99.8725 386.768 99.2435C386.768 98.6145 386.786 98.0379 386.821 97.5312C386.856 97.0245 386.926 96.7624 387.013 96.7624H387.502C388.201 97.4613 388.9 98.0204 389.616 98.4747C390.333 98.929 391.189 99.1386 392.22 99.1386C393.408 99.1386 394.316 98.9639 394.945 98.6145C395.574 98.265 396.221 97.7409 396.867 97.0594C397.357 96.4829 397.758 95.8713 398.09 95.2249C398.422 94.5784 398.719 93.8445 398.999 93.0233L386.891 60.6823L384.742 60.193C384.742 60.193 384.672 60.1057 384.654 59.9135C384.637 59.7213 384.619 59.5291 384.619 59.3369C384.619 59.1447 384.619 58.9525 384.654 58.7953C384.672 58.638 384.707 58.5506 384.742 58.5506H401.131C401.131 58.5506 401.201 58.638 401.218 58.7953C401.235 58.9525 401.235 59.1447 401.218 59.3369C401.201 59.5466 401.166 59.7388 401.131 59.9135C401.096 60.0882 401.043 60.193 401.008 60.193L397.514 60.6823C397.758 61.3811 397.968 62.0101 398.125 62.5693C398.283 63.1284 398.457 63.705 398.65 64.2815C398.824 64.8581 399.034 65.4522 399.261 66.0637C399.488 66.6752 399.733 67.3741 400.03 68.1429C400.187 68.5972 400.467 69.3834 400.834 70.5366C401.2 71.6898 401.602 72.9128 402.057 74.2407C402.511 75.5686 402.93 76.8441 403.332 78.0671C403.734 79.2902 404.066 80.2162 404.311 80.8277H404.433C404.712 80.1288 405.044 79.2552 405.411 78.2069C405.778 77.1586 406.163 76.0578 406.547 74.9396C406.931 73.8214 407.298 72.7556 407.648 71.7247C407.997 70.7113 408.294 69.8726 408.539 69.2087C408.871 68.1953 409.168 67.2868 409.43 66.483C409.692 65.6793 409.919 64.9804 410.111 64.334C410.286 63.705 410.461 63.1109 410.636 62.5693C410.793 62.0101 410.967 61.4336 411.125 60.822C410.426 60.6648 409.849 60.5425 409.36 60.4551C408.871 60.3678 408.364 60.2979 407.822 60.2105C407.788 60.2105 407.753 60.1231 407.735 59.9309C407.718 59.7388 407.7 59.5466 407.7 59.3544C407.7 59.1622 407.718 58.97 407.77 58.8127C407.805 58.6555 407.857 58.5681 407.892 58.5681H416.401C416.401 58.5681 416.471 58.6555 416.489 58.8127C416.506 58.97 416.506 59.1622 416.489 59.3544C416.471 59.564 416.436 59.7562 416.401 59.9309C416.366 60.1057 416.314 60.2105 416.279 60.2105L414.13 60.8744C413.92 61.451 413.728 62.0101 413.518 62.5867C413.309 63.1633 413.082 63.7923 412.837 64.4737C412.592 65.1726 412.313 65.9239 412.016 66.7626C411.701 67.6013 411.352 68.5622 410.95 69.663L403.489 89.4066C401.864 93.53 400.327 96.5353 398.912 98.4572C397.846 99.8375 396.658 100.851 395.33 101.445C394.002 102.056 392.569 102.371 391.014 102.371L390.979 102.406Z" fill="white"/>
<path d="M433.664 92.307C431.253 92.307 429.034 91.9051 426.972 91.1189C424.91 90.3151 423.111 89.1969 421.556 87.7293C420.001 86.2616 418.795 84.4619 417.921 82.3478C417.048 80.2337 416.611 77.84 416.611 75.2017C416.611 72.5634 417.048 70.1522 417.904 68.0206C418.76 65.8715 419.948 64.0544 421.451 62.5518C422.953 61.0492 424.736 59.8785 426.762 59.0573C428.807 58.2361 431.008 57.8343 433.367 57.8343C435.726 57.8343 438.014 58.2187 440.094 59.0049C442.173 59.7737 443.99 60.8919 445.545 62.3596C447.1 63.8272 448.306 65.6269 449.179 67.741C450.053 69.8552 450.49 72.2489 450.49 74.9046C450.49 77.5604 450.053 79.9541 449.214 82.1207C448.358 84.2872 447.187 86.1218 445.702 87.6244C444.217 89.127 442.435 90.2977 440.391 91.1189C438.329 91.9401 436.092 92.3419 433.699 92.3419L433.664 92.307ZM433.664 89.9133C434.765 89.9133 435.743 89.6687 436.599 89.1445C437.455 88.6378 438.172 87.7991 438.731 86.646C439.29 85.4928 439.744 83.9727 440.041 82.1032C440.338 80.2337 440.495 77.9273 440.495 75.1667C440.495 72.2489 440.338 69.8202 440.041 67.9157C439.727 66.0113 439.272 64.4737 438.661 63.3206C438.049 62.1674 437.298 61.3462 436.407 60.8919C435.516 60.4202 434.485 60.193 433.349 60.193C432.214 60.193 431.288 60.4551 430.449 60.9618C429.61 61.4685 428.894 62.3072 428.3 63.4603C427.706 64.6135 427.269 66.1336 426.989 68.0206C426.71 69.9076 426.553 72.2139 426.553 74.9396C426.553 77.8225 426.71 80.2337 427.007 82.1556C427.304 84.0776 427.776 85.6326 428.387 86.7858C428.999 87.9389 429.75 88.7601 430.624 89.2144C431.497 89.6861 432.511 89.9133 433.646 89.9133H433.664Z" fill="white"/>
<path d="M466.197 92.307C462.929 92.307 460.431 91.4858 458.701 89.8609C456.971 88.2359 456.098 85.7025 456.098 82.2779V66.5354C456.098 65.8191 456.098 65.0852 456.063 64.3339C456.045 63.5826 456.028 62.8837 456.028 62.2198V60.7521C455.451 60.6648 454.98 60.5949 454.595 60.5075C454.211 60.4202 453.652 60.3503 452.918 60.2629C452.883 60.2629 452.848 60.1755 452.831 59.9833C452.813 59.8086 452.813 59.6164 452.831 59.4068C452.848 59.1971 452.865 59.0049 452.9 58.8302C452.918 58.638 452.97 58.5506 453.058 58.5506H465.725V81.0024C465.725 82.872 466.057 84.3571 466.738 85.4579C467.42 86.5586 468.783 87.1002 470.862 87.1002C472.207 87.1002 473.308 86.8731 474.164 86.4014C475.02 85.9296 475.719 85.4229 476.243 84.8463V66.6053C476.243 65.9064 476.243 65.1901 476.208 64.4038C476.191 63.635 476.173 62.9012 476.138 62.2373C476.121 61.5733 476.104 61.0666 476.104 60.7347C475.614 60.6473 475.108 60.5774 474.601 60.49C474.094 60.4027 473.465 60.3328 472.731 60.2454C472.696 60.2454 472.661 60.1581 472.661 59.9659V59.3893C472.661 59.1796 472.662 58.9874 472.696 58.8127C472.714 58.6205 472.766 58.5331 472.854 58.5331H485.888V81.614C485.888 82.3303 485.888 83.0816 485.923 83.8679C485.94 84.6716 485.958 85.4229 485.993 86.1567C486.01 86.8906 486.028 87.4672 486.028 87.869L489.767 88.6727C489.767 88.6727 489.837 88.7601 489.854 88.9523C489.872 89.127 489.889 89.3367 489.889 89.5638C489.889 89.791 489.872 89.9832 489.837 90.1404C489.802 90.2977 489.749 90.385 489.714 90.385C487.635 90.717 485.591 90.9966 483.564 91.2412C481.555 91.4858 479.546 91.8177 477.536 92.2196C477.449 92.2196 477.274 92.1672 477.012 92.0624C476.75 91.9575 476.61 91.8702 476.61 91.7828L476.54 87.0129H476.296C475.807 87.7118 475.177 88.3757 474.426 89.0047C473.675 89.6337 472.854 90.1928 471.945 90.6821C471.054 91.1713 470.093 91.5557 469.097 91.8527C468.101 92.1322 467.123 92.2895 466.197 92.2895V92.307Z" fill="white"/>
<path d="M491.48 91.2412C491.462 91.049 491.462 90.8568 491.48 90.6646C491.497 90.4549 491.515 90.2627 491.532 90.088C491.55 89.8958 491.585 89.8085 491.62 89.8085L494.677 89.3192C494.712 88.3408 494.747 87.2051 494.747 85.8947V70.2396C494.747 68.9292 494.747 67.6712 494.712 66.4481C494.695 65.225 494.66 63.9321 494.625 62.5867C494.048 62.3771 493.559 62.2373 493.122 62.1325C492.685 62.0276 492.161 61.9053 491.497 61.7306C491.462 61.3986 491.427 61.154 491.427 60.9618C491.427 60.7696 491.427 60.6124 491.462 60.4377C491.48 60.2804 491.515 60.193 491.55 60.193C492.93 59.9135 494.136 59.6689 495.131 59.4592C496.127 59.2495 497.071 59.0574 497.944 58.8826C498.818 58.7079 499.692 58.5157 500.548 58.306C501.404 58.0964 502.417 57.8692 503.606 57.6421C503.693 57.6072 503.798 57.6421 503.937 57.7644C504.077 57.8867 504.147 57.9915 504.147 58.0789L504.025 65.2949H504.269C504.671 64.3165 505.178 63.373 505.772 62.447C506.366 61.5209 507.03 60.7172 507.781 60.0358C508.533 59.3369 509.336 58.7778 510.193 58.3585C511.049 57.9217 511.94 57.712 512.883 57.712C513.582 57.712 514.141 57.7644 514.596 57.8692C515.05 57.9741 515.452 58.1488 515.819 58.3934C515.854 58.4284 515.888 58.8652 515.888 59.6689C515.888 60.4726 515.871 61.3812 515.819 62.3596C515.784 63.338 515.731 64.2291 515.696 65.0154C515.661 65.8191 515.609 66.2035 515.574 66.2035H515.085C514.718 65.9938 514.211 65.7842 513.547 65.557C512.901 65.3299 512.114 65.225 511.223 65.225C509.878 65.225 508.62 65.4347 507.467 65.8366C506.296 66.2384 505.248 66.9024 504.322 67.7935V89.3192C504.898 89.4066 505.51 89.4765 506.156 89.5639C506.803 89.6512 507.432 89.7211 508.043 89.8085C508.078 89.8085 508.113 89.8958 508.113 90.088V90.6646C508.113 90.8743 508.078 91.1538 507.991 91.5207H491.532C491.532 91.5207 491.462 91.4334 491.445 91.2412H491.48Z" fill="white"/>
<path d="M14.5227 161.311C12.8104 161.311 11.3602 161.084 10.1546 160.63C8.94906 160.176 7.97061 159.547 7.21931 158.726C6.468 157.904 5.90889 156.961 5.55944 155.878C5.21 154.794 5.03528 153.606 5.03528 152.296V131.102H0.160526C0.160526 131.102 0.0207483 130.875 0.00327604 130.438C-0.0141962 129.984 0.0382205 129.722 0.160526 129.652C0.370193 129.495 0.789526 129.145 1.436 128.621C2.08247 128.097 2.85125 127.45 3.72486 126.699C4.59847 125.948 5.5245 125.161 6.50294 124.358C7.48139 123.554 8.38995 122.785 9.22861 122.086C10.0673 121.37 10.7662 120.776 11.3428 120.287C11.9193 119.797 12.2164 119.535 12.2513 119.5C12.3736 119.378 12.5658 119.308 12.8279 119.291C13.09 119.273 13.3695 119.291 13.6491 119.326C13.9286 119.361 14.1907 119.431 14.4179 119.5C14.645 119.588 14.7498 119.658 14.7498 119.745C14.7498 120.025 14.7498 120.531 14.7149 121.248C14.6799 121.964 14.6799 122.733 14.6799 123.537C14.6799 124.34 14.6799 125.144 14.645 125.895C14.6275 126.647 14.6101 127.206 14.6101 127.573H23.8354C23.8354 127.573 23.9577 127.747 23.9577 128.114C23.9577 128.481 23.9402 128.883 23.8878 129.355C23.8529 129.809 23.783 130.228 23.7131 130.595C23.6257 130.962 23.5558 131.137 23.4685 131.137H14.6101V151.213C14.6101 152.837 14.942 154.061 15.6234 154.899C16.2874 155.738 17.4406 156.157 19.083 156.157C20.306 156.157 21.2845 156.017 22.0183 155.72C22.7521 155.423 23.3986 155.144 23.9752 154.864C24.0101 154.864 24.0451 154.952 24.0625 155.144C24.08 155.336 24.0975 155.546 24.0975 155.79V156.542C24.0975 156.786 24.08 156.943 24.0451 156.978C23.3462 158.149 22.193 159.162 20.5856 160.053C18.9781 160.927 16.9513 161.364 14.5052 161.364L14.5227 161.311Z" fill="white"/>
<path d="M55.6176 153.431C55.338 154.043 54.8662 154.794 54.2198 155.685C53.5733 156.576 52.6822 157.45 51.5989 158.289C50.4982 159.127 49.1354 159.844 47.5279 160.42C45.9205 161.014 44.016 161.311 41.8145 161.311C39.1587 161.311 36.8349 160.91 34.8081 160.088C32.7988 159.267 31.104 158.149 29.7587 156.699C28.4133 155.249 27.3999 153.519 26.701 151.51C26.0021 149.483 25.6527 147.264 25.6527 144.818C25.6527 142.005 26.072 139.489 26.9107 137.27C27.7493 135.051 28.885 133.164 30.3003 131.609C31.733 130.054 33.4278 128.883 35.3672 128.062C37.3241 127.241 39.4208 126.839 41.6572 126.839C46.5844 126.839 50.2361 128.219 52.6123 130.962C54.9711 133.723 56.0019 137.514 55.67 142.372H35.175C35.21 144.678 35.5245 146.635 36.1011 148.242C36.6777 149.85 37.429 151.178 38.3899 152.226C39.3509 153.274 40.4517 154.043 41.6922 154.515C42.9327 154.987 44.2955 155.231 45.7632 155.231C47.0212 155.231 48.1569 155.109 49.1528 154.882C50.1487 154.655 51.0398 154.34 51.8086 153.973C52.5774 153.589 53.2763 153.187 53.8878 152.733C54.4993 152.296 55.0235 151.859 55.4778 151.44C55.5651 151.405 55.6176 151.44 55.6525 151.597C55.6874 151.737 55.7224 151.929 55.7224 152.173C55.7224 152.418 55.7224 152.663 55.6874 152.907C55.67 153.152 55.635 153.344 55.6001 153.466L55.6176 153.431ZM41.5524 129.215C39.8401 129.215 38.4074 130.036 37.2368 131.679C36.0661 133.321 35.4197 136.082 35.2449 139.978L46.2 139.244C46.2 135.592 45.8156 133.006 45.0643 131.486C44.313 129.966 43.1424 129.198 41.5524 129.198V129.215Z" fill="white"/>
<path d="M67.2362 161.311C64.6328 161.311 62.5536 160.613 60.9986 159.232C59.4435 157.852 58.6748 155.843 58.6748 153.239C58.6748 151.894 58.8844 150.758 59.2863 149.815C59.6882 148.871 60.2473 148.085 60.9636 147.421C61.68 146.775 62.5012 146.233 63.4447 145.796C64.3882 145.377 65.3841 144.992 66.4324 144.66C67.3759 144.328 68.3544 144.014 69.3678 143.682C70.3812 143.35 71.5343 142.913 72.7923 142.337C73.8057 141.882 74.6444 141.411 75.3083 140.921C75.9548 140.432 76.2868 139.646 76.2868 138.528V136.274C76.2868 133.95 75.8325 132.273 74.9065 131.224C73.9804 130.176 72.4429 129.669 70.2938 129.669C68.4592 129.669 66.7994 130.158 65.3142 131.137C63.8291 132.115 62.4837 133.321 61.3131 134.736H60.7016C60.7016 134.736 60.5618 134.439 60.5268 133.828C60.4919 133.216 60.4569 132.535 60.4569 131.783C60.4569 131.032 60.4569 130.333 60.4919 129.669C60.5094 129.023 60.5792 128.673 60.7016 128.621C62.012 128.044 63.6369 127.608 65.5938 127.276C67.5507 126.944 69.6299 126.786 71.8314 126.786C73.7883 126.786 75.6228 126.926 77.3351 127.188C79.0474 127.45 80.5325 127.957 81.808 128.691C83.066 129.425 84.0619 130.421 84.7783 131.661C85.4946 132.902 85.8441 134.509 85.8441 136.466V154.62C85.8441 155.72 86.0363 156.437 86.4207 156.786C86.8051 157.136 87.4166 157.31 88.2203 157.31C88.8318 157.31 89.4084 157.205 89.9326 157.013C89.9675 157.013 90.0025 157.101 90.0025 157.258V158.394C90.0025 158.568 89.985 158.691 89.9326 158.726C89.356 159.459 88.5173 160.071 87.4166 160.56C86.3158 161.049 84.9879 161.294 83.4504 161.294C81.7032 161.294 80.2705 160.927 79.1697 160.193C78.0689 159.459 77.3351 158.446 76.9682 157.136C76.8808 157.013 76.8284 156.839 76.8109 156.611C76.7935 156.384 76.7585 156.21 76.7236 156.087H76.5489C76.2169 156.699 75.7801 157.31 75.2384 157.922C74.6968 158.533 74.0154 159.092 73.2291 159.599C72.4254 160.106 71.5343 160.525 70.5384 160.822C69.5425 161.119 68.4417 161.277 67.2711 161.277L67.2362 161.311ZM72.0061 156.786C73.1942 156.786 74.1202 156.489 74.7842 155.878C75.4656 155.266 75.9548 154.672 76.2868 154.113V143.158C76.0072 143.525 75.4132 143.909 74.5221 144.328C74.0678 144.538 73.5611 144.73 72.9845 144.905C72.4079 145.097 71.9362 145.272 71.5693 145.482C71.115 145.691 70.6957 145.901 70.2938 146.146C69.8919 146.39 69.525 146.74 69.228 147.176C68.931 147.631 68.6689 148.207 68.4592 148.906C68.2496 149.623 68.1622 150.496 68.1622 151.562C68.1622 153.274 68.4942 154.567 69.1756 155.458C69.8395 156.349 70.8005 156.804 72.0236 156.804L72.0061 156.786Z" fill="white"/>
<path d="M107.056 158.813C107.056 158.813 107.125 158.9 107.125 159.093C107.125 159.285 107.125 159.477 107.09 159.669C107.073 159.879 107.056 160.071 107.021 160.246C107.003 160.42 106.968 160.525 106.933 160.525H91.4004C91.4004 160.525 91.3305 160.438 91.3131 160.246C91.2956 160.053 91.2956 159.861 91.3131 159.669C91.3305 159.459 91.348 159.267 91.3655 159.093C91.383 158.9 91.4179 158.813 91.4528 158.813L94.5105 158.324C94.5454 157.345 94.5804 156.21 94.5804 154.899V139.244C94.5804 137.934 94.5804 136.676 94.5454 135.453C94.528 134.23 94.493 132.937 94.4581 131.591C93.8815 131.382 93.3923 131.242 92.9555 131.137C92.5187 131.032 91.9945 130.91 91.3305 130.735C91.2956 130.403 91.2607 130.159 91.2607 129.966C91.2607 129.774 91.2607 129.617 91.2956 129.442C91.3131 129.285 91.348 129.198 91.383 129.198C92.7633 128.918 93.9688 128.673 94.9648 128.464C95.9607 128.254 96.9042 128.062 97.7778 127.887C98.6514 127.712 99.525 127.52 100.381 127.311C101.237 127.101 102.251 126.874 103.439 126.647C103.526 126.612 103.631 126.647 103.771 126.769C103.911 126.891 103.98 126.996 103.98 127.083L103.858 132.22H104.103C105.413 130.665 107.073 129.39 109.082 128.359C111.092 127.345 113.258 126.821 115.53 126.821C117.801 126.821 119.566 127.206 120.911 127.957C122.256 128.708 123.2 130.124 123.724 132.203H123.969C125.279 130.648 126.956 129.372 129.018 128.341C131.08 127.328 133.246 126.804 135.535 126.804C136.968 126.804 138.209 126.961 139.292 127.258C140.375 127.555 141.266 128.079 141.983 128.813C142.699 129.547 143.223 130.543 143.572 131.801C143.922 133.059 144.097 134.631 144.097 136.518V158.219C144.673 158.341 145.162 158.429 145.599 158.498C146.019 158.568 146.56 158.656 147.224 158.778C147.259 158.778 147.294 158.865 147.294 159.058C147.294 159.25 147.294 159.442 147.259 159.634C147.242 159.844 147.224 160.036 147.189 160.211C147.172 160.385 147.137 160.49 147.102 160.49H131.569C131.569 160.49 131.499 160.403 131.482 160.211C131.464 160.019 131.464 159.826 131.482 159.634C131.499 159.424 131.534 159.232 131.569 159.058C131.604 158.865 131.656 158.778 131.691 158.778L134.452 158.289C134.539 157.031 134.574 155.808 134.574 154.655V137.619C134.574 135.627 134.242 134.212 133.561 133.391C132.88 132.57 131.779 132.168 130.224 132.168C128.843 132.168 127.638 132.377 126.624 132.814C125.611 133.251 124.755 133.74 124.056 134.317C124.091 134.649 124.126 134.998 124.143 135.365C124.161 135.732 124.178 136.117 124.178 136.536V158.236C124.702 158.359 125.174 158.446 125.559 158.516C125.943 158.586 126.432 158.673 126.991 158.795C127.026 158.795 127.061 158.883 127.079 159.075C127.096 159.25 127.096 159.459 127.079 159.652C127.061 159.861 127.026 160.053 126.991 160.228C126.956 160.403 126.904 160.508 126.869 160.508H111.581C111.581 160.508 111.511 160.42 111.511 160.228C111.511 160.036 111.511 159.844 111.546 159.652C111.563 159.442 111.581 159.25 111.598 159.075C111.616 158.883 111.651 158.795 111.686 158.795L114.446 158.306C114.534 157.048 114.569 155.825 114.569 154.672V137.637C114.569 135.645 114.237 134.23 113.555 133.408C112.891 132.587 111.791 132.185 110.288 132.185C108.855 132.185 107.667 132.377 106.706 132.762C105.745 133.146 104.906 133.653 104.173 134.264V158.359C104.627 158.446 105.046 158.498 105.431 158.533C105.815 158.568 106.357 158.656 107.056 158.778V158.813Z" fill="white"/>
<path d="M159.647 160.525C159.647 160.525 159.577 160.438 159.56 160.246C159.542 160.053 159.542 159.861 159.56 159.669C159.577 159.459 159.595 159.267 159.612 159.093C159.63 158.9 159.664 158.813 159.699 158.813L162.757 158.324C162.792 157.345 162.827 156.21 162.827 154.899V139.244C162.827 137.934 162.827 136.676 162.792 135.453C162.775 134.23 162.74 132.937 162.705 131.591C162.128 131.382 161.639 131.242 161.202 131.137C160.765 131.032 160.241 130.91 159.577 130.735C159.542 130.403 159.507 130.159 159.507 129.966C159.507 129.774 159.507 129.617 159.542 129.442C159.56 129.285 159.595 129.198 159.63 129.198C162.076 128.673 164.382 128.184 166.566 127.765C168.75 127.328 170.532 126.961 171.912 126.629C172 126.594 172.105 126.629 172.244 126.716C172.384 126.821 172.454 126.926 172.454 127.048C172.454 127.782 172.437 128.901 172.384 130.386C172.349 131.871 172.332 133.286 172.332 134.631V158.359L175.442 158.778C175.442 158.778 175.512 158.865 175.512 159.058V159.634C175.512 159.844 175.477 160.123 175.389 160.49H159.612L159.647 160.525ZM167.544 124.131C166.112 124.131 164.889 123.659 163.84 122.715C162.809 121.772 162.285 120.584 162.285 119.186C162.285 117.788 162.809 116.6 163.84 115.657C164.889 114.713 166.112 114.241 167.544 114.241C168.977 114.241 170.27 114.713 171.301 115.657C172.349 116.6 172.856 117.788 172.856 119.186C172.856 120.584 172.332 121.772 171.301 122.715C170.27 123.659 169.012 124.131 167.544 124.131Z" fill="white"/>
<path d="M177.661 160.246C177.644 160.053 177.644 159.861 177.661 159.669C177.679 159.459 177.696 159.267 177.731 159.093C177.749 158.9 177.783 158.813 177.818 158.813L180.876 158.324C180.911 157.345 180.946 156.21 180.963 154.899C180.981 153.589 180.998 152.296 180.998 150.985V139.244C180.998 137.934 180.981 136.676 180.928 135.453C180.894 134.23 180.841 132.937 180.806 131.591C180.23 131.382 179.74 131.242 179.304 131.137C178.884 131.032 178.343 130.91 177.679 130.735C177.644 130.403 177.609 130.159 177.609 129.966C177.609 129.774 177.609 129.617 177.644 129.442C177.661 129.285 177.696 129.198 177.731 129.198C179.111 128.918 180.317 128.673 181.313 128.464C182.309 128.254 183.252 128.062 184.126 127.887C184.999 127.712 185.873 127.52 186.729 127.311C187.585 127.101 188.599 126.874 189.787 126.647C189.874 126.612 189.979 126.647 190.119 126.769C190.259 126.891 190.329 126.996 190.329 127.083L190.259 132.22H190.433C191.744 130.665 193.439 129.39 195.535 128.359C197.632 127.345 199.833 126.821 202.105 126.821C203.538 126.821 204.813 126.979 205.931 127.276C207.049 127.573 207.993 128.097 208.779 128.831C209.548 129.564 210.142 130.56 210.561 131.818C210.963 133.076 211.173 134.649 211.173 136.536V158.236L214.283 158.778C214.283 158.778 214.353 158.865 214.353 159.058C214.353 159.25 214.353 159.442 214.318 159.634C214.3 159.844 214.283 160.036 214.248 160.211C214.231 160.385 214.196 160.49 214.161 160.49H198.383C198.383 160.49 198.331 160.403 198.331 160.211C198.331 160.019 198.331 159.826 198.366 159.634C198.383 159.424 198.401 159.232 198.418 159.058C198.436 158.865 198.471 158.778 198.506 158.778L201.493 158.289C201.581 157.031 201.616 155.808 201.616 154.655V137.619C201.616 135.627 201.266 134.177 200.585 133.304C199.886 132.43 198.698 131.993 196.985 131.993C195.605 131.993 194.365 132.22 193.246 132.657C192.146 133.111 191.237 133.635 190.503 134.247V158.341L193.613 158.761C193.613 158.761 193.683 158.848 193.683 159.04C193.683 159.232 193.683 159.424 193.648 159.617C193.631 159.826 193.613 160.019 193.596 160.193C193.578 160.368 193.543 160.473 193.508 160.473H177.731C177.731 160.473 177.661 160.385 177.644 160.193L177.661 160.246Z" fill="white"/>
<path d="M243.968 161.311C241.557 161.311 239.338 160.91 237.276 160.123C235.215 159.32 233.415 158.201 231.86 156.734C230.305 155.266 229.099 153.466 228.226 151.352C227.352 149.238 226.915 146.844 226.915 144.206C226.915 141.568 227.352 139.157 228.208 137.025C229.064 134.876 230.252 133.059 231.755 131.556C233.258 130.054 235.04 128.883 237.067 128.062C239.111 127.241 241.312 126.839 243.671 126.839C246.03 126.839 248.319 127.223 250.398 128.009C252.477 128.778 254.294 129.896 255.849 131.364C257.404 132.832 258.61 134.631 259.483 136.746C260.357 138.86 260.794 141.253 260.794 143.909C260.794 146.565 260.357 148.959 259.518 151.125C258.662 153.292 257.492 155.126 256.006 156.629C254.521 158.132 252.739 159.302 250.695 160.123C248.633 160.945 246.397 161.346 244.003 161.346L243.968 161.311ZM243.968 158.918C245.069 158.918 246.047 158.673 246.903 158.149C247.76 157.642 248.476 156.804 249.035 155.65C249.594 154.497 250.048 152.977 250.345 151.108C250.642 149.238 250.8 146.932 250.8 144.171C250.8 141.253 250.642 138.825 250.345 136.92C250.031 135.016 249.577 133.478 248.965 132.325C248.354 131.172 247.602 130.351 246.711 129.896C245.82 129.425 244.789 129.198 243.654 129.198C242.518 129.198 241.592 129.46 240.753 129.966C239.915 130.473 239.198 131.312 238.604 132.465C238.01 133.618 237.573 135.138 237.294 137.025C237.014 138.912 236.857 141.218 236.857 143.944C236.857 146.827 237.014 149.238 237.311 151.16C237.608 153.082 238.08 154.637 238.691 155.79C239.303 156.943 240.054 157.765 240.928 158.219C241.802 158.691 242.815 158.918 243.951 158.918H243.968Z" fill="white"/>
<path d="M263.327 160.246C263.31 160.053 263.31 159.861 263.327 159.669C263.345 159.459 263.362 159.267 263.397 159.093C263.415 158.9 263.449 158.813 263.484 158.813L266.542 158.324C266.577 157.345 266.612 156.21 266.629 154.899C266.647 153.589 266.664 152.296 266.664 150.985V139.244C266.664 137.934 266.647 136.676 266.594 135.453C266.56 134.23 266.507 132.937 266.472 131.591C265.896 131.382 265.406 131.242 264.97 131.137C264.55 131.032 264.009 130.91 263.345 130.735C263.31 130.403 263.275 130.159 263.275 129.966C263.275 129.774 263.275 129.617 263.31 129.442C263.327 129.285 263.362 129.198 263.397 129.198C264.777 128.918 265.983 128.673 266.979 128.464C267.975 128.254 268.918 128.062 269.792 127.887C270.665 127.712 271.539 127.52 272.395 127.311C273.251 127.101 274.265 126.874 275.453 126.647C275.54 126.612 275.645 126.647 275.785 126.769C275.925 126.891 275.995 126.996 275.995 127.083L275.925 132.22H276.099C277.41 130.665 279.105 129.39 281.201 128.359C283.298 127.345 285.499 126.821 287.771 126.821C289.204 126.821 290.479 126.979 291.597 127.276C292.715 127.573 293.659 128.097 294.445 128.831C295.214 129.564 295.808 130.56 296.227 131.818C296.629 133.076 296.839 134.649 296.839 136.536V158.236L299.949 158.778C299.949 158.778 300.019 158.865 300.019 159.058C300.019 159.25 300.019 159.442 299.984 159.634C299.966 159.844 299.949 160.036 299.914 160.211C299.897 160.385 299.862 160.49 299.827 160.49H284.049C284.049 160.49 283.997 160.403 283.997 160.211C283.997 160.019 283.997 159.826 284.032 159.634C284.049 159.424 284.067 159.232 284.084 159.058C284.102 158.865 284.137 158.778 284.172 158.778L287.159 158.289C287.247 157.031 287.282 155.808 287.282 154.655V137.619C287.282 135.627 286.932 134.177 286.251 133.304C285.552 132.43 284.364 131.993 282.651 131.993C281.271 131.993 280.031 132.22 278.912 132.657C277.812 133.111 276.903 133.635 276.169 134.247V158.341L279.279 158.761C279.279 158.761 279.349 158.848 279.349 159.04C279.349 159.232 279.349 159.424 279.314 159.617C279.297 159.826 279.279 160.019 279.262 160.193C279.244 160.368 279.209 160.473 279.174 160.473H263.397C263.397 160.473 263.327 160.385 263.31 160.193L263.327 160.246Z" fill="white"/>
<path d="M332.465 153.431C332.185 154.043 331.713 154.794 331.067 155.685C330.421 156.576 329.529 157.45 328.446 158.289C327.345 159.127 325.983 159.844 324.375 160.42C322.768 161.014 320.863 161.311 318.662 161.311C316.006 161.311 313.682 160.91 311.655 160.088C309.646 159.267 307.951 158.149 306.606 156.699C305.261 155.249 304.247 153.519 303.548 151.51C302.849 149.483 302.5 147.264 302.5 144.818C302.5 142.005 302.919 139.489 303.758 137.27C304.597 135.051 305.732 133.164 307.148 131.609C308.58 130.054 310.275 128.883 312.214 128.062C314.171 127.241 316.268 126.839 318.504 126.839C323.432 126.839 327.083 128.219 329.46 130.962C331.818 133.723 332.849 137.514 332.517 142.372H312.022C312.057 144.678 312.372 146.635 312.948 148.242C313.525 149.85 314.276 151.178 315.237 152.226C316.198 153.274 317.299 154.043 318.539 154.515C319.78 154.987 321.143 155.231 322.61 155.231C323.868 155.231 325.004 155.109 326 154.882C326.996 154.655 327.887 154.34 328.656 153.973C329.425 153.589 330.123 153.187 330.735 152.733C331.347 152.296 331.871 151.859 332.325 151.44C332.412 151.405 332.465 151.44 332.5 151.597C332.535 151.737 332.57 151.929 332.57 152.173C332.57 152.418 332.57 152.663 332.535 152.907C332.517 153.152 332.482 153.344 332.447 153.466L332.465 153.431ZM318.4 129.215C316.687 129.215 315.255 130.036 314.084 131.679C312.913 133.321 312.267 136.082 312.092 139.978L323.047 139.244C323.047 135.592 322.663 133.006 321.912 131.486C321.16 129.966 319.99 129.198 318.4 129.198V129.215Z" fill="white"/>
<path d="M348.294 170.065C348.329 169.087 348.364 167.951 348.364 166.64V139.244C348.364 137.934 348.364 136.658 348.329 135.418C348.312 134.177 348.277 132.884 348.242 131.539C347.63 131.382 347.141 131.242 346.774 131.137C346.407 131.032 345.883 130.91 345.184 130.735C345.149 130.403 345.132 130.158 345.132 129.966C345.132 129.774 345.132 129.617 345.167 129.442C345.184 129.285 345.219 129.198 345.254 129.198C346.635 128.918 347.84 128.673 348.854 128.464C349.867 128.254 350.828 128.062 351.736 127.887C352.628 127.712 353.536 127.52 354.427 127.311C355.318 127.101 356.367 126.856 357.555 126.577L358.096 127.013L357.974 130.193H358.149C359.162 129.337 360.455 128.569 362.028 127.87C363.6 127.171 365.26 126.839 367.007 126.839C369.366 126.839 371.428 127.206 373.157 127.94C374.887 128.673 376.32 129.722 377.473 131.085C378.609 132.447 379.465 134.107 380.007 136.029C380.548 137.969 380.828 140.135 380.828 142.546C380.828 145.814 380.391 148.627 379.517 150.985C378.644 153.344 377.403 155.301 375.813 156.821C374.223 158.341 372.301 159.477 370.03 160.211C367.758 160.945 365.225 161.311 362.412 161.311C361.713 161.311 360.997 161.277 360.245 161.224C359.494 161.172 358.725 161.049 357.957 160.892V169.943C358.603 170.065 359.232 170.17 359.826 170.275C360.42 170.38 361.032 170.467 361.696 170.554C361.731 170.554 361.748 170.642 361.748 170.834C361.748 171.026 361.748 171.218 361.713 171.41C361.696 171.62 361.678 171.812 361.643 171.987C361.626 172.179 361.591 172.267 361.556 172.267H345.167C345.167 172.267 345.045 172.179 345.045 171.987V171.41C345.045 171.201 345.062 171.009 345.114 170.834C345.149 170.659 345.202 170.554 345.237 170.554L348.294 170.065ZM362.412 158.935C363.967 158.935 365.277 158.673 366.361 158.132C367.444 157.607 368.3 156.751 368.964 155.563C369.611 154.375 370.082 152.82 370.362 150.881C370.641 148.941 370.799 146.582 370.799 143.822C370.799 141.253 370.624 139.157 370.257 137.549C369.89 135.942 369.366 134.684 368.667 133.758C367.968 132.832 367.147 132.203 366.186 131.871C365.225 131.539 364.159 131.347 362.971 131.347C362.028 131.347 361.119 131.486 360.245 131.748C359.372 132.011 358.603 132.308 357.957 132.64V157.345C358.481 157.8 359.162 158.166 359.983 158.481C360.805 158.795 361.608 158.935 362.429 158.935H362.412Z" fill="white"/>
<path d="M383.554 160.246C383.536 160.053 383.536 159.861 383.554 159.669C383.571 159.459 383.589 159.267 383.606 159.093C383.624 158.9 383.659 158.813 383.694 158.813L386.751 158.324C386.786 157.345 386.821 156.21 386.821 154.899V125.668C386.821 124.358 386.821 123.1 386.786 121.877C386.769 120.654 386.734 119.378 386.699 118.015C386.122 117.806 385.633 117.666 385.196 117.561C384.759 117.456 384.235 117.334 383.571 117.159C383.536 116.827 383.501 116.583 383.501 116.39C383.501 116.198 383.501 116.041 383.536 115.866C383.554 115.709 383.589 115.622 383.624 115.622C386.07 115.132 388.376 114.678 390.56 114.241C392.744 113.804 394.526 113.42 395.907 113.053C395.994 113.018 396.099 113.053 396.239 113.175C396.378 113.298 396.448 113.403 396.448 113.473C396.448 114.241 396.431 115.36 396.378 116.827C396.344 118.295 396.326 119.71 396.326 121.055V158.359C396.903 158.446 397.444 158.516 397.951 158.568C398.458 158.638 399.017 158.708 399.628 158.778C399.663 158.778 399.698 158.865 399.698 159.058V159.634C399.698 159.844 399.663 160.123 399.576 160.49H383.606C383.606 160.49 383.536 160.403 383.519 160.211L383.554 160.246Z" fill="white"/>
<path d="M410.496 161.311C407.892 161.311 405.813 160.613 404.258 159.232C402.703 157.852 401.934 155.843 401.934 153.239C401.934 151.894 402.144 150.758 402.546 149.815C402.948 148.871 403.507 148.085 404.223 147.421C404.939 146.775 405.761 146.233 406.704 145.796C407.648 145.377 408.644 144.992 409.692 144.66C410.635 144.328 411.614 144.014 412.627 143.682C413.641 143.35 414.794 142.913 416.052 142.337C417.065 141.882 417.904 141.411 418.568 140.921C419.214 140.432 419.546 139.646 419.546 138.528V136.274C419.546 133.95 419.092 132.273 418.166 131.224C417.24 130.176 415.702 129.669 413.553 129.669C411.719 129.669 410.059 130.158 408.574 131.137C407.089 132.115 405.743 133.321 404.573 134.736H403.961C403.961 134.736 403.821 134.439 403.786 133.828C403.751 133.216 403.716 132.535 403.716 131.783C403.716 131.032 403.716 130.333 403.751 129.669C403.769 129.023 403.839 128.673 403.961 128.621C405.271 128.044 406.896 127.608 408.853 127.276C410.81 126.944 412.889 126.786 415.091 126.786C417.048 126.786 418.882 126.926 420.595 127.188C422.307 127.45 423.792 127.957 425.067 128.691C426.325 129.425 427.321 130.421 428.038 131.661C428.754 132.902 429.104 134.509 429.104 136.466V154.62C429.104 155.72 429.296 156.437 429.68 156.786C430.065 157.136 430.676 157.31 431.48 157.31C432.091 157.31 432.668 157.205 433.192 157.013C433.227 157.013 433.262 157.101 433.262 157.258V158.394C433.262 158.568 433.244 158.691 433.192 158.726C432.615 159.459 431.777 160.071 430.676 160.56C429.575 161.049 428.247 161.294 426.71 161.294C424.963 161.294 423.53 160.927 422.429 160.193C421.328 159.459 420.595 158.446 420.228 157.136C420.14 157.013 420.088 156.839 420.07 156.611C420.053 156.384 420.018 156.21 419.983 156.087H419.808C419.476 156.699 419.04 157.31 418.498 157.922C417.956 158.533 417.275 159.092 416.489 159.599C415.685 160.106 414.794 160.525 413.798 160.822C412.802 161.119 411.701 161.277 410.531 161.277L410.496 161.311ZM415.266 156.786C416.454 156.786 417.38 156.489 418.044 155.878C418.725 155.266 419.214 154.672 419.546 154.113V143.158C419.267 143.525 418.673 143.909 417.782 144.328C417.327 144.538 416.821 144.73 416.244 144.905C415.667 145.097 415.196 145.272 414.829 145.482C414.374 145.691 413.955 145.901 413.553 146.146C413.151 146.39 412.785 146.74 412.487 147.176C412.19 147.631 411.928 148.207 411.719 148.906C411.509 149.623 411.422 150.496 411.422 151.562C411.422 153.274 411.754 154.567 412.435 155.458C413.099 156.349 414.06 156.804 415.283 156.804L415.266 156.786Z" fill="white"/>
<path d="M447.188 161.311C445.475 161.311 444.025 161.084 442.82 160.63C441.614 160.176 440.636 159.547 439.884 158.726C439.133 157.904 438.574 156.961 438.225 155.878C437.875 154.794 437.7 153.606 437.7 152.296V131.102H432.808C432.808 131.102 432.668 130.875 432.651 130.438C432.633 129.984 432.686 129.722 432.808 129.652C433.018 129.495 433.437 129.145 434.084 128.621C434.73 128.097 435.499 127.45 436.372 126.699C437.246 125.948 438.172 125.161 439.151 124.358C440.129 123.554 441.038 122.785 441.876 122.086C442.715 121.37 443.414 120.776 443.99 120.287C444.567 119.797 444.864 119.535 444.899 119.5C445.021 119.378 445.213 119.308 445.475 119.291C445.738 119.273 446.017 119.291 446.297 119.326C446.576 119.361 446.838 119.431 447.065 119.5C447.293 119.588 447.397 119.658 447.397 119.745C447.397 120.025 447.397 120.531 447.363 121.248C447.328 121.964 447.328 122.733 447.328 123.537C447.328 124.34 447.328 125.144 447.293 125.895C447.275 126.647 447.258 127.206 447.258 127.573H456.483C456.483 127.573 456.605 127.747 456.605 128.114C456.605 128.481 456.588 128.883 456.535 129.355C456.5 129.809 456.431 130.228 456.361 130.595C456.273 130.962 456.203 131.137 456.116 131.137H447.258V151.213C447.258 152.837 447.59 154.061 448.271 154.899C448.935 155.738 450.088 156.157 451.731 156.157C452.954 156.157 453.932 156.017 454.666 155.72C455.4 155.423 456.046 155.144 456.623 154.864C456.658 154.864 456.693 154.952 456.71 155.144C456.728 155.336 456.745 155.546 456.745 155.79V156.542C456.745 156.786 456.728 156.943 456.693 156.978C455.994 158.149 454.841 159.162 453.233 160.053C451.626 160.927 449.599 161.364 447.153 161.364L447.188 161.311Z" fill="white"/>
<path d="M459.435 160.246C459.418 160.054 459.418 159.861 459.435 159.669C459.453 159.477 459.488 159.267 459.523 159.093C459.558 158.918 459.61 158.813 459.645 158.813L462.58 158.324C462.668 157.345 462.703 156.157 462.703 154.777V131.067H458.369C458.369 131.067 458.299 130.962 458.299 130.735V130.019C458.299 129.757 458.3 129.512 458.334 129.302C458.352 129.075 458.387 128.97 458.422 128.97L462.703 127.345V126.315C462.703 123.956 463.157 121.929 464.083 120.252C464.991 118.574 466.18 117.212 467.63 116.163C469.08 115.097 470.67 114.329 472.4 113.839C474.129 113.35 475.842 113.106 477.502 113.106C478.882 113.106 480.175 113.193 481.38 113.35C482.586 113.507 483.442 113.7 483.984 113.892C484.019 113.892 484.071 114.171 484.106 114.713C484.141 115.255 484.176 115.849 484.176 116.478C484.176 117.107 484.158 117.683 484.106 118.225C484.071 118.749 484.019 119.029 483.984 119.029H483.442C482.743 118.33 481.939 117.701 480.996 117.142C480.052 116.565 478.917 116.286 477.571 116.286C474.112 116.286 472.365 118.277 472.365 122.279V127.59H479.703C479.703 127.59 479.808 127.765 479.79 128.132C479.773 128.499 479.72 128.901 479.633 129.372C479.546 129.844 479.476 130.246 479.388 130.613C479.301 130.98 479.249 131.154 479.214 131.154H472.295V158.306C472.994 158.429 473.623 158.516 474.217 158.586C474.811 158.656 475.457 158.743 476.139 158.865C476.174 158.865 476.191 158.953 476.191 159.145C476.191 159.337 476.191 159.529 476.156 159.722C476.121 159.914 476.121 160.123 476.104 160.298C476.086 160.473 476.051 160.578 476.016 160.578H459.505C459.505 160.578 459.435 160.49 459.418 160.298L459.435 160.246Z" fill="white"/>
<path d="M497.822 161.311C495.411 161.311 493.192 160.91 491.13 160.123C489.069 159.32 487.269 158.201 485.714 156.734C484.159 155.266 482.953 153.466 482.08 151.352C481.206 149.238 480.769 146.844 480.769 144.206C480.769 141.568 481.206 139.157 482.062 137.025C482.918 134.876 484.107 133.059 485.609 131.556C487.112 130.054 488.894 128.883 490.921 128.062C492.965 127.241 495.166 126.839 497.525 126.839C499.884 126.839 502.173 127.223 504.252 128.009C506.331 128.778 508.148 129.896 509.703 131.364C511.258 132.832 512.464 134.631 513.338 136.746C514.211 138.86 514.648 141.253 514.648 143.909C514.648 146.565 514.211 148.959 513.373 151.125C512.516 153.292 511.346 155.126 509.861 156.629C508.375 158.132 506.593 159.302 504.549 160.123C502.487 160.945 500.251 161.346 497.857 161.346L497.822 161.311ZM497.822 158.918C498.923 158.918 499.901 158.673 500.758 158.149C501.614 157.642 502.33 156.804 502.889 155.65C503.448 154.497 503.903 152.977 504.2 151.108C504.497 149.238 504.654 146.932 504.654 144.171C504.654 141.253 504.497 138.825 504.2 136.92C503.885 135.016 503.431 133.478 502.819 132.325C502.208 131.172 501.456 130.351 500.565 129.896C499.674 129.425 498.643 129.198 497.508 129.198C496.372 129.198 495.446 129.46 494.607 129.966C493.769 130.473 493.052 131.312 492.458 132.465C491.864 133.618 491.427 135.138 491.148 137.025C490.868 138.912 490.711 141.218 490.711 143.944C490.711 146.827 490.868 149.238 491.165 151.16C491.462 153.082 491.934 154.637 492.546 155.79C493.157 156.943 493.908 157.765 494.782 158.219C495.656 158.691 496.669 158.918 497.805 158.918H497.822Z" fill="white"/>
<path d="M517.234 160.246C517.217 160.053 517.217 159.861 517.234 159.669C517.251 159.459 517.269 159.267 517.286 159.093C517.304 158.9 517.339 158.813 517.374 158.813L520.431 158.324C520.466 157.345 520.501 156.21 520.501 154.899V139.244C520.501 137.934 520.501 136.676 520.466 135.453C520.449 134.23 520.414 132.937 520.379 131.591C519.802 131.382 519.313 131.242 518.876 131.137C518.44 131.032 517.915 130.91 517.251 130.735C517.217 130.403 517.182 130.159 517.182 129.966C517.182 129.774 517.182 129.617 517.217 129.442C517.234 129.285 517.269 129.198 517.304 129.198C518.684 128.918 519.89 128.673 520.886 128.464C521.882 128.254 522.825 128.062 523.699 127.887C524.572 127.712 525.446 127.52 526.302 127.311C527.158 127.101 528.172 126.874 529.36 126.647C529.447 126.612 529.552 126.647 529.692 126.769C529.831 126.891 529.901 126.996 529.901 127.083L529.779 134.299H530.024C530.426 133.321 530.932 132.377 531.526 131.451C532.12 130.525 532.784 129.722 533.536 129.04C534.287 128.341 535.091 127.782 535.947 127.363C536.803 126.926 537.694 126.716 538.637 126.716C539.336 126.716 539.895 126.769 540.35 126.874C540.804 126.979 541.206 127.153 541.573 127.398C541.608 127.433 541.643 127.87 541.643 128.673C541.643 129.477 541.625 130.386 541.573 131.364C541.538 132.343 541.485 133.234 541.451 134.02C541.416 134.824 541.363 135.208 541.328 135.208H540.839C540.472 134.998 539.965 134.789 539.301 134.562C538.655 134.334 537.869 134.23 536.978 134.23C535.632 134.23 534.374 134.439 533.221 134.841C532.05 135.243 531.002 135.907 530.076 136.798V158.324C530.653 158.411 531.264 158.481 531.911 158.568C532.557 158.656 533.186 158.726 533.798 158.813C533.833 158.813 533.868 158.9 533.868 159.093V159.669C533.868 159.879 533.833 160.158 533.745 160.525H517.286C517.286 160.525 517.217 160.438 517.199 160.246H517.234Z" fill="white"/>
<path d="M559.761 158.813C559.761 158.813 559.831 158.9 559.831 159.093C559.831 159.285 559.831 159.477 559.796 159.669C559.778 159.879 559.761 160.071 559.726 160.246C559.708 160.42 559.673 160.525 559.638 160.525H544.106C544.106 160.525 544.036 160.438 544.018 160.246C544.001 160.053 544.001 159.861 544.018 159.669C544.036 159.459 544.053 159.267 544.071 159.093C544.088 158.9 544.123 158.813 544.158 158.813L547.216 158.324C547.251 157.345 547.286 156.21 547.286 154.899V139.244C547.286 137.934 547.286 136.676 547.251 135.453C547.233 134.23 547.198 132.937 547.163 131.591C546.587 131.382 546.097 131.242 545.661 131.137C545.224 131.032 544.7 130.91 544.036 130.735C544.001 130.403 543.966 130.159 543.966 129.966C543.966 129.774 543.966 129.617 544.001 129.442C544.018 129.285 544.053 129.198 544.088 129.198C545.469 128.918 546.674 128.673 547.67 128.464C548.666 128.254 549.609 128.062 550.483 127.887C551.357 127.712 552.23 127.52 553.086 127.311C553.943 127.101 554.956 126.874 556.144 126.647C556.231 126.612 556.336 126.647 556.476 126.769C556.616 126.891 556.686 126.996 556.686 127.083L556.563 132.22H556.808C558.118 130.665 559.778 129.39 561.788 128.359C563.797 127.345 565.963 126.821 568.235 126.821C570.506 126.821 572.271 127.206 573.616 127.957C574.962 128.708 575.905 130.124 576.429 132.203H576.674C577.984 130.648 579.662 129.372 581.723 128.341C583.785 127.328 585.952 126.804 588.241 126.804C589.673 126.804 590.914 126.961 591.997 127.258C593.08 127.555 593.971 128.079 594.688 128.813C595.404 129.547 595.928 130.543 596.278 131.801C596.627 133.059 596.802 134.631 596.802 136.518V158.219C597.379 158.341 597.868 158.429 598.305 158.498C598.724 158.568 599.265 158.656 599.929 158.778C599.964 158.778 599.999 158.865 599.999 159.058C599.999 159.25 599.999 159.442 599.964 159.634C599.947 159.844 599.929 160.036 599.895 160.211C599.877 160.385 599.842 160.49 599.807 160.49H584.274C584.274 160.49 584.204 160.403 584.187 160.211C584.17 160.019 584.17 159.826 584.187 159.634C584.204 159.424 584.239 159.232 584.274 159.058C584.309 158.865 584.362 158.778 584.397 158.778L587.157 158.289C587.245 157.031 587.28 155.808 587.28 154.655V137.619C587.28 135.627 586.948 134.212 586.266 133.391C585.585 132.57 584.484 132.168 582.929 132.168C581.549 132.168 580.343 132.377 579.33 132.814C578.316 133.251 577.46 133.74 576.761 134.317C576.796 134.649 576.831 134.998 576.849 135.365C576.866 135.732 576.884 136.117 576.884 136.536V158.236C577.408 158.359 577.879 158.446 578.264 158.516C578.648 158.586 579.137 158.673 579.697 158.795C579.732 158.795 579.766 158.883 579.784 159.075C579.801 159.25 579.801 159.459 579.784 159.652C579.766 159.861 579.732 160.053 579.697 160.228C579.662 160.403 579.609 160.508 579.574 160.508H564.286C564.286 160.508 564.216 160.42 564.216 160.228C564.216 160.036 564.216 159.844 564.251 159.652C564.269 159.442 564.286 159.25 564.304 159.075C564.321 158.883 564.356 158.795 564.391 158.795L567.152 158.306C567.239 157.048 567.274 155.825 567.274 154.672V137.637C567.274 135.645 566.942 134.23 566.26 133.408C565.597 132.587 564.496 132.185 562.993 132.185C561.56 132.185 560.372 132.377 559.411 132.762C558.45 133.146 557.612 133.653 556.878 134.264V158.359C557.332 158.446 557.751 158.498 558.136 158.533C558.52 158.568 559.062 158.656 559.761 158.778V158.813Z" fill="white"/>
<path d="M586.878 71.697C583.284 75.933 575.802 78.975 575.802 78.975C575.802 78.975 573.072 78.069 570 76.299C566.922 78.063 564.198 78.975 564.198 78.975C564.198 78.975 556.716 75.933 553.122 71.697L554.184 69.075L557.25 68.643C559.572 73.923 564.198 77.007 564.198 77.007C564.198 77.007 565.812 76.275 567.672 74.823C565.302 73.149 563.07 70.983 562.05 68.343L563.526 65.853L566.868 66.123C567.192 68.793 568.488 70.971 570 72.657C571.506 70.971 572.808 68.793 573.132 66.123L576.474 65.853L577.95 68.343C576.93 70.983 574.704 73.149 572.328 74.823C574.188 76.281 575.802 77.007 575.802 77.007C575.802 77.007 580.428 73.923 582.75 68.643L585.816 69.075L586.878 71.697ZM600 52.731H540V92.097H600V52.731Z" fill="#FF507E"/>
<g clip-path="url(#clip0_42_138)">
<path d="M30.5971 30.1916C30.5971 30.1916 30.4442 30.2469 30.1384 30.269C29.8327 30.2911 29.5051 30.3132 29.1447 30.3132C28.7843 30.3132 28.4677 30.3132 28.1728 30.2911C27.878 30.269 27.7251 30.2469 27.6923 30.1916C27.2883 28.854 26.9061 27.6268 26.5676 26.5213C26.229 25.4158 25.8359 24.1334 25.3991 22.6741C24.9623 21.2148 24.5146 19.7113 24.045 18.1526C23.5755 16.5938 23.095 15.024 22.6145 13.432C22.134 11.8401 21.6863 10.3697 21.2713 8.9989C20.1465 12.4592 18.9999 16.0079 17.8315 19.6561C16.663 23.3043 15.5055 26.8198 14.348 30.2027C14.348 30.2248 14.1951 30.258 13.8893 30.2801C13.5835 30.3022 13.2559 30.3243 12.9174 30.3243C12.5789 30.3243 12.2513 30.3243 11.9455 30.3022C11.6398 30.2911 11.4869 30.258 11.4869 30.2027C11.0282 28.7545 10.6133 27.4389 10.242 26.2339C9.8707 25.0399 9.45574 23.6691 8.97526 22.1324C8.50569 20.5958 8.00336 19.0149 7.49012 17.3898C6.96595 15.7647 6.45271 14.1395 5.9613 12.5144C5.4699 10.8893 5.00033 9.39688 4.56353 8.04815C4.12672 6.69943 3.76636 5.52758 3.44968 4.56578C3.14391 3.59293 2.92551 2.95173 2.80539 2.60902C2.44502 2.55374 2.12834 2.49847 1.84442 2.43213C1.5605 2.3658 1.24381 2.29947 0.883448 2.22209C0.872528 2.13365 0.872528 1.94571 0.872528 1.63616C0.883448 1.32662 0.905288 1.11657 0.927129 1.01707H12.0875C12.0875 1.01707 12.1312 1.08341 12.1421 1.20501C12.153 1.33767 12.153 1.47034 12.1421 1.61405C12.1312 1.75777 12.1202 1.89043 12.0984 2.02309C12.0875 2.15576 12.0656 2.21103 12.0438 2.21103C11.607 2.28842 11.2357 2.35475 10.919 2.42108C10.6024 2.48741 10.2092 2.54269 9.75058 2.59796C9.97991 3.50449 10.2311 4.44417 10.4932 5.42808C10.7662 6.41199 11.1156 7.617 11.5415 9.06523L15.167 20.9827H15.44C15.8768 19.5897 16.2917 18.2631 16.6958 17.0139C17.0998 15.7647 17.5039 14.5265 17.8752 13.3215C18.2574 12.1054 18.6505 10.8893 19.0436 9.66221C19.4367 8.43509 19.8517 7.14163 20.2885 5.77079L19.262 2.59796C18.9344 2.57585 18.6614 2.54269 18.4648 2.49847C18.2574 2.45425 18.0717 2.43213 17.8861 2.39897C17.7113 2.37686 17.5257 2.34369 17.351 2.32158C17.1763 2.29947 16.9579 2.25525 16.6958 2.19998C16.6739 2.12259 16.663 1.9236 16.6739 1.61405C16.6849 1.30451 16.7176 1.09446 16.7722 0.994964H28.6533C28.6533 0.994964 28.697 1.0613 28.697 1.1829V1.59194C28.697 1.73566 28.6861 1.86832 28.6533 2.00098C28.6315 2.13365 28.5987 2.18892 28.5769 2.18892L26.2072 2.57585C26.4147 3.37182 26.6549 4.30046 26.9388 5.36175C27.2228 6.42305 27.5504 7.63912 27.9326 9.04312L31.4161 20.9937H31.6891C32.2023 19.2913 32.6937 17.6993 33.1633 16.2179C33.6329 14.7365 34.0915 13.2662 34.5392 11.829C34.987 10.3808 35.4347 8.93257 35.8933 7.47329C36.352 6.01401 36.8325 4.44417 37.3457 2.77484L34.4846 2.18892C34.4846 2.18892 34.441 2.12259 34.441 2.00098C34.441 1.87938 34.441 1.73566 34.4628 1.59194C34.4737 1.44823 34.4846 1.31556 34.4956 1.1829C34.5065 1.05024 34.5283 0.994964 34.5502 0.994964H41.539C41.539 0.994964 41.5827 1.05024 41.5827 1.17185C41.5827 1.29345 41.5827 1.42612 41.5609 1.58089C41.55 1.73566 41.539 1.87938 41.5172 2.00098C41.5063 2.13365 41.4844 2.18892 41.4626 2.18892C41.0804 2.32158 40.731 2.41002 40.4361 2.47636C40.1303 2.54269 39.8355 2.60902 39.5516 2.6864C38.8636 4.72055 38.1538 6.88736 37.4331 9.16473C36.7014 11.4531 35.9589 13.7747 35.1945 16.1295C34.43 18.4953 33.6547 20.8611 32.8794 23.249C32.1041 25.6369 31.3287 27.9364 30.5643 30.1585L30.5971 30.1916ZM59.7647 25.5485C59.59 25.9354 59.2952 26.4108 58.8911 26.9746C58.4871 27.5384 57.9301 28.0912 57.2531 28.6218C56.5651 29.1525 55.7134 29.6057 54.7087 29.9705C53.7041 30.3464 52.5138 30.5343 51.1378 30.5343C49.478 30.5343 48.0256 30.2801 46.7589 29.7605C45.503 29.2409 44.4438 28.5334 43.6029 27.6158C42.7621 26.6982 42.1287 25.6037 41.6919 24.3324C41.2551 23.05 41.0367 21.646 41.0367 20.0983C41.0367 18.3184 41.2988 16.7265 41.823 15.3224C42.3471 13.9184 43.0569 12.7245 43.9415 11.7406C44.8369 10.7567 45.8962 10.016 47.1083 9.49638C48.3314 8.97679 49.6418 8.72252 51.0395 8.72252C54.119 8.72252 56.4013 9.59588 57.8865 11.3315C59.3607 13.0783 60.005 15.4772 59.7975 18.5506H46.9882C47.01 20.0098 47.2066 21.248 47.5669 22.2651C47.9273 23.2822 48.3969 24.1224 48.9975 24.7857C49.5981 25.449 50.2861 25.9354 51.0614 26.2339C51.8367 26.5324 52.6885 26.6872 53.6058 26.6872C54.392 26.6872 55.1018 26.6098 55.7243 26.4661C56.3467 26.3223 56.9036 26.1233 57.3841 25.8912C57.8646 25.648 58.3014 25.3937 58.6836 25.1063C59.0658 24.8299 59.3934 24.5535 59.6774 24.2882C59.732 24.2661 59.7647 24.2882 59.7866 24.3877C59.8084 24.4761 59.8302 24.5977 59.8302 24.7525C59.8302 24.9073 59.8302 25.062 59.8084 25.2168C59.7975 25.3716 59.7756 25.4932 59.7538 25.5706L59.7647 25.5485ZM50.974 10.226C49.9039 10.226 49.0084 10.7456 48.2768 11.7848C47.5451 12.824 47.1411 14.5707 47.0319 17.036L53.8788 16.5717C53.8788 14.2612 53.6385 12.625 53.169 11.6632C52.6994 10.7014 51.9678 10.215 50.974 10.215V10.226ZM63.1827 29.86C63.1718 29.7384 63.1718 29.6168 63.1827 29.4952C63.1936 29.3625 63.2046 29.2409 63.2155 29.1303C63.2264 29.0087 63.2482 28.9535 63.2701 28.9535L65.1811 28.6439C65.2029 28.0248 65.2248 27.3062 65.2248 26.4771V7.98182C65.2248 7.15269 65.2248 6.35672 65.2029 5.58285C65.192 4.80899 65.1702 4.00197 65.1483 3.13966C64.788 3.007 64.4822 2.91856 64.2092 2.85223C63.9362 2.7859 63.6086 2.70851 63.1936 2.59796C63.1718 2.38791 63.15 2.23314 63.15 2.11154C63.15 1.98993 63.15 1.89043 63.1718 1.77988C63.1827 1.68038 63.2046 1.62511 63.2264 1.62511C64.7552 1.31556 66.1967 1.02813 67.5617 0.751751C68.9267 0.475372 70.0405 0.232158 70.9032 -1.86265e-09C70.9578 -0.0221103 71.0234 -3.72529e-09 71.1107 0.0773861C71.1981 0.154772 71.2418 0.221103 71.2418 0.265324C71.2418 0.751751 71.2308 1.45928 71.1981 2.38791C71.1762 3.31655 71.1653 4.21202 71.1653 5.06326V28.666C71.5257 28.7213 71.8642 28.7655 72.1809 28.7987C72.4976 28.8429 72.847 28.8871 73.2292 28.9313C73.2511 28.9313 73.2729 28.9866 73.2729 29.1082V29.4731C73.2729 29.6057 73.2511 29.7826 73.1965 30.0148H63.2155C63.2155 30.0148 63.1718 29.9595 63.1609 29.8379L63.1827 29.86ZM85.9075 30.5343C84.4333 30.5343 83.101 30.2801 81.9326 29.7826C80.7641 29.2741 79.7595 28.5776 78.9295 27.6711C78.0996 26.7645 77.4662 25.6811 77.0185 24.4208C76.5708 23.1606 76.3524 21.7676 76.3524 20.242C76.3524 18.3073 76.7127 16.627 77.4225 15.1898C78.1324 13.7526 79.0606 12.5587 80.1963 11.5969C81.3319 10.624 82.5878 9.90542 83.9746 9.43005C85.3615 8.95468 86.7374 8.71146 88.0806 8.71146C88.714 8.71146 89.2818 8.73357 89.7623 8.76674C90.2428 8.81096 90.6905 8.85518 91.0836 8.92151C91.4767 8.98784 91.8371 9.06523 92.1756 9.17578C92.5032 9.27528 92.8527 9.39688 93.2021 9.52955C93.2567 9.55166 93.2895 9.77276 93.3004 10.1707C93.3113 10.5687 93.3222 10.9999 93.3222 11.4642C93.3222 11.9285 93.3113 12.3486 93.2895 12.7466C93.2676 13.1335 93.2349 13.3215 93.213 13.3215H92.8308C92.1647 12.5697 91.4658 11.9175 90.7123 11.3647C89.9588 10.8119 89.0525 10.5356 87.9823 10.5356C87.2179 10.5356 86.4862 10.7014 85.7983 11.0109C85.1103 11.3315 84.4988 11.818 83.9637 12.4702C83.4286 13.1225 83.0027 13.9516 82.697 14.9576C82.3912 15.9636 82.2383 17.1576 82.2383 18.5395C82.2383 21.1817 82.8062 23.1937 83.9637 24.5867C85.1103 25.9686 86.6282 26.665 88.5174 26.665C89.8169 26.6872 90.898 26.4882 91.7607 26.0681C92.6234 25.648 93.3659 25.1837 93.9774 24.6862C93.9993 24.6641 94.0321 24.6862 94.0539 24.7857C94.0757 24.8741 94.0976 24.9957 94.0976 25.1505C94.0976 25.3053 94.0976 25.449 94.0757 25.5927C94.0648 25.7364 94.043 25.847 94.0211 25.9243C93.8464 26.3113 93.5406 26.7645 93.1257 27.2952C92.6998 27.8258 92.1538 28.3233 91.4877 28.8097C90.8106 29.2851 90.0134 29.6942 89.0743 30.0258C88.1461 30.3575 87.0978 30.5343 85.9184 30.5343H85.9075ZM107.879 30.5343C106.372 30.5343 104.985 30.2801 103.696 29.7826C102.408 29.2741 101.283 28.5665 100.311 27.6379C99.3392 26.7093 98.5857 25.5706 98.0397 24.2329C97.4937 22.8952 97.2207 21.3807 97.2207 19.7113C97.2207 18.042 97.4937 16.5164 98.0288 15.1677C98.5639 13.8079 99.3065 12.6582 100.246 11.7074C101.185 10.7567 102.299 10.016 103.565 9.49638C104.843 8.97679 106.219 8.72252 107.693 8.72252C109.167 8.72252 110.598 8.96573 111.897 9.46322C113.197 9.94964 114.333 10.6572 115.304 11.5858C116.276 12.5144 117.03 13.6531 117.576 14.9908C118.122 16.3285 118.395 17.843 118.395 19.5234C118.395 21.2038 118.122 22.7184 117.598 24.0892C117.063 25.46 116.331 26.6208 115.403 27.5716C114.475 28.5223 113.361 29.263 112.083 29.7826C110.794 30.3022 109.397 30.5565 107.901 30.5565L107.879 30.5343ZM107.879 29.0198C108.567 29.0198 109.178 28.865 109.713 28.5334C110.248 28.2128 110.696 27.6821 111.046 26.9525C111.395 26.2228 111.679 25.261 111.865 24.0781C112.05 22.8952 112.149 21.436 112.149 19.6892C112.149 17.843 112.05 16.3064 111.865 15.1013C111.668 13.8963 111.384 12.9235 111.002 12.1938C110.62 11.4642 110.15 10.9446 109.593 10.6572C109.036 10.3587 108.392 10.215 107.682 10.215C106.972 10.215 106.394 10.3808 105.869 10.7014C105.345 11.022 104.898 11.5526 104.526 12.2823C104.155 13.0119 103.882 13.9737 103.707 15.1677C103.533 16.3616 103.434 17.8209 103.434 19.5455C103.434 21.3696 103.533 22.8952 103.718 24.1113C103.904 25.3274 104.199 26.3113 104.581 27.0409C104.963 27.7706 105.433 28.2902 105.979 28.5776C106.525 28.8761 107.158 29.0198 107.868 29.0198H107.879ZM131.575 28.9424C131.575 28.9424 131.619 28.9977 131.619 29.1193C131.619 29.2409 131.619 29.3625 131.597 29.4841C131.586 29.6168 131.575 29.7384 131.554 29.8489C131.543 29.9595 131.521 30.0258 131.499 30.0258H121.791C121.791 30.0258 121.747 29.9705 121.736 29.8489C121.725 29.7273 121.725 29.6057 121.736 29.4841C121.747 29.3514 121.758 29.2298 121.769 29.1193C121.78 28.9977 121.802 28.9424 121.824 28.9424L123.735 28.6329C123.757 28.0138 123.778 27.2952 123.778 26.4661V16.5606C123.778 15.7315 123.778 14.9355 123.757 14.1617C123.746 13.3878 123.724 12.5697 123.702 11.7185C123.342 11.5858 123.036 11.4974 122.763 11.431C122.49 11.3647 122.162 11.2873 121.747 11.1768C121.725 10.9667 121.704 10.8119 121.704 10.6903C121.704 10.5687 121.704 10.4692 121.725 10.3587C121.736 10.2592 121.758 10.2039 121.78 10.2039C122.643 10.027 123.396 9.87226 124.019 9.7396C124.641 9.60693 125.231 9.48533 125.777 9.37477C126.323 9.26422 126.869 9.14262 127.404 9.00995C127.939 8.87729 128.572 8.73357 129.315 8.58986C129.37 8.56775 129.435 8.58986 129.522 8.66724C129.61 8.74463 129.653 8.81096 129.653 8.86624L129.577 12.1165H129.73C130.549 11.1325 131.586 10.3255 132.842 9.67326C134.098 9.03206 135.452 8.70041 136.872 8.70041C138.291 8.70041 139.394 8.94362 140.235 9.419C141.076 9.89437 141.666 10.7898 141.993 12.1054H142.146C142.965 11.1215 144.013 10.3145 145.302 9.66221C146.591 9.02101 147.945 8.68935 149.375 8.68935C150.271 8.68935 151.046 8.78885 151.723 8.97679C152.4 9.16473 152.957 9.49638 153.405 9.9607C153.852 10.425 154.18 11.0552 154.398 11.8511C154.617 12.6471 154.726 13.6421 154.726 14.836V28.5665C155.086 28.6439 155.392 28.6992 155.665 28.7434C155.927 28.7876 156.266 28.8429 156.681 28.9203C156.703 28.9203 156.724 28.9756 156.724 29.0972C156.724 29.2188 156.724 29.3404 156.703 29.462C156.692 29.5947 156.681 29.7163 156.659 29.8268C156.648 29.9374 156.626 30.0037 156.604 30.0037H146.896C146.896 30.0037 146.853 29.9484 146.842 29.8268C146.831 29.7052 146.831 29.5836 146.842 29.462C146.853 29.3293 146.874 29.2077 146.896 29.0972C146.918 28.9756 146.951 28.9203 146.973 28.9203L148.698 28.6107C148.753 27.8148 148.775 27.0409 148.775 26.3113V15.5325C148.775 14.2722 148.567 13.3767 148.141 12.8572C147.715 12.3376 147.027 12.0833 146.055 12.0833C145.193 12.0833 144.439 12.216 143.806 12.4923C143.173 12.7687 142.637 13.0783 142.201 13.4431C142.223 13.6531 142.244 13.8742 142.255 14.1064C142.266 14.3385 142.277 14.5818 142.277 14.8471V28.5776C142.605 28.655 142.9 28.7102 143.14 28.7545C143.38 28.7987 143.686 28.854 144.035 28.9313C144.057 28.9313 144.079 28.9866 144.09 29.1082C144.101 29.2188 144.101 29.3514 144.09 29.4731C144.079 29.6057 144.057 29.7273 144.035 29.8379C144.013 29.9484 143.981 30.0148 143.959 30.0148H134.404C134.404 30.0148 134.36 29.9595 134.36 29.8379C134.36 29.7163 134.36 29.5947 134.382 29.4731C134.393 29.3404 134.404 29.2188 134.415 29.1082C134.426 28.9866 134.447 28.9313 134.469 28.9313L136.195 28.6218C136.249 27.8258 136.271 27.052 136.271 26.3223V15.5436C136.271 14.2833 136.064 13.3878 135.638 12.8682C135.223 12.3486 134.535 12.0943 133.596 12.0943C132.7 12.0943 131.958 12.216 131.357 12.4592C130.756 12.7024 130.232 13.023 129.774 13.4099V28.655C130.058 28.7102 130.32 28.7434 130.56 28.7655C130.8 28.7876 131.139 28.8429 131.575 28.9203V28.9424ZM178.696 25.5374C178.521 25.9243 178.226 26.3997 177.822 26.9635C177.418 27.5273 176.861 28.0801 176.184 28.6107C175.496 29.1414 174.644 29.5947 173.64 29.9595C172.635 30.3354 171.445 30.5233 170.069 30.5233C168.409 30.5233 166.957 30.269 165.69 29.7494C164.434 29.2298 163.375 28.5223 162.534 27.6047C161.693 26.6872 161.06 25.5927 160.623 24.3213C160.186 23.039 159.968 21.6349 159.968 20.0872C159.968 18.3073 160.23 16.7154 160.754 15.3114C161.278 13.9074 161.988 12.7134 162.872 11.7295C163.768 10.7456 164.827 10.0049 166.039 9.48533C167.262 8.96573 168.573 8.71146 169.971 8.71146C173.05 8.71146 175.332 9.58482 176.817 11.3205C178.292 13.0672 178.936 15.4662 178.728 18.5395H165.919C165.941 19.9988 166.138 21.237 166.498 22.254C166.858 23.2711 167.328 24.1113 167.928 24.7746C168.529 25.4379 169.217 25.9243 169.992 26.2228C170.768 26.5213 171.619 26.6761 172.537 26.6761C173.323 26.6761 174.033 26.5987 174.655 26.455C175.278 26.3113 175.835 26.1123 176.315 25.8801C176.796 25.6369 177.232 25.3826 177.615 25.0952C177.997 24.8188 178.324 24.5425 178.608 24.2771C178.663 24.255 178.696 24.2771 178.718 24.3766C178.739 24.4651 178.761 24.5867 178.761 24.7414C178.761 24.8962 178.761 25.051 178.739 25.2058C178.728 25.3605 178.707 25.4821 178.685 25.5595L178.696 25.5374ZM169.905 10.215C168.835 10.215 167.939 10.7346 167.208 11.7737C166.476 12.8129 166.072 14.5596 165.963 17.0249L172.81 16.5606C172.81 14.2501 172.57 12.6139 172.1 11.6521C171.63 10.6903 170.899 10.2039 169.905 10.2039V10.215ZM198.417 30.5343C197.347 30.5343 196.441 30.3906 195.687 30.1032C194.934 29.8158 194.322 29.4178 193.853 28.8982C193.383 28.3786 193.034 27.7816 192.815 27.0962C192.597 26.4108 192.488 25.659 192.488 24.8299V11.42H189.43C189.43 11.42 189.343 11.2763 189.332 10.9999C189.321 10.7124 189.354 10.5466 189.43 10.5024C189.561 10.4029 189.823 10.1818 190.227 9.85015C190.631 9.51849 191.112 9.10945 191.658 8.63408C192.204 8.15871 192.783 7.66122 193.394 7.15269C194.006 6.64415 194.574 6.15772 195.098 5.71552C195.622 5.26226 196.059 4.88638 196.419 4.57684C196.779 4.26729 196.965 4.10146 196.987 4.07935C197.063 4.00197 197.183 3.95775 197.347 3.94669C197.511 3.93564 197.686 3.94669 197.861 3.9688C198.035 3.99091 198.199 4.03513 198.341 4.07935C198.483 4.13463 198.548 4.17885 198.548 4.23413C198.548 4.41101 198.548 4.73161 198.527 5.18487C198.505 5.63813 198.505 6.12456 198.505 6.63309C198.505 7.14163 198.505 7.65017 198.483 8.12554C198.472 8.60091 198.461 8.95468 198.461 9.18684H204.227C204.227 9.18684 204.303 9.29739 204.303 9.52955C204.303 9.76171 204.292 10.016 204.26 10.3145C204.238 10.6019 204.194 10.8672 204.15 11.0994C204.096 11.3315 204.052 11.4421 203.998 11.4421H198.461V24.1445C198.461 25.1726 198.669 25.9465 199.094 26.4771C199.509 27.0078 200.23 27.2731 201.257 27.2731C202.021 27.2731 202.633 27.1846 203.091 26.9967C203.55 26.8088 203.954 26.6319 204.314 26.455C204.336 26.455 204.358 26.5103 204.369 26.6319C204.38 26.7535 204.391 26.8861 204.391 27.0409V27.5163C204.391 27.6711 204.38 27.7706 204.358 27.7927C203.921 28.5334 203.2 29.1746 202.196 29.7384C201.191 30.2911 199.924 30.5675 198.396 30.5675L198.417 30.5343ZM217.757 30.5343C216.25 30.5343 214.863 30.2801 213.575 29.7826C212.286 29.2741 211.161 28.5665 210.189 27.6379C209.217 26.7093 208.464 25.5706 207.918 24.2329C207.372 22.8952 207.099 21.3807 207.099 19.7113C207.099 18.042 207.372 16.5164 207.907 15.1677C208.442 13.8079 209.185 12.6582 210.124 11.7074C211.063 10.7567 212.177 10.016 213.444 9.49638C214.721 8.97679 216.097 8.72252 217.571 8.72252C219.046 8.72252 220.476 8.96573 221.776 9.46322C223.075 9.94964 224.211 10.6572 225.183 11.5858C226.155 12.5144 226.908 13.6531 227.454 14.9908C228 16.3285 228.273 17.843 228.273 19.5234C228.273 21.2038 228 22.7184 227.476 24.0892C226.941 25.46 226.209 26.6208 225.281 27.5716C224.353 28.5223 223.239 29.263 221.961 29.7826C220.673 30.3022 219.275 30.5565 217.779 30.5565L217.757 30.5343ZM217.757 29.0198C218.445 29.0198 219.056 28.865 219.592 28.5334C220.127 28.2128 220.574 27.6821 220.924 26.9525C221.273 26.2228 221.557 25.261 221.743 24.0781C221.928 22.8952 222.027 21.436 222.027 19.6892C222.027 17.843 221.928 16.3064 221.743 15.1013C221.546 13.8963 221.262 12.9235 220.88 12.1938C220.498 11.4642 220.028 10.9446 219.471 10.6572C218.914 10.3587 218.27 10.215 217.56 10.215C216.851 10.215 216.272 10.3808 215.748 10.7014C215.224 11.022 214.776 11.5526 214.404 12.2823C214.033 13.0119 213.76 13.9737 213.585 15.1677C213.411 16.3616 213.312 17.8209 213.312 19.5455C213.312 21.3696 213.411 22.8952 213.596 24.1113C213.782 25.3274 214.077 26.3113 214.459 27.0409C214.841 27.7706 215.311 28.2902 215.857 28.5776C216.403 28.8761 217.036 29.0198 217.746 29.0198H217.757Z" fill="white"/>
</g>
<path d="M600 179.066L599.183 177.317L599.181 177.325V177.323L598.767 178.392L598.266 177.317L598.264 177.325V177.323L597.588 179.066H597.731L598.148 177.996L598.639 179.047L598.649 179.066L599.066 177.996L599.566 179.066H600Z" fill="#F0F0F0"/>
<path d="M597.855 177.464V177.369H596.298V177.464H596.872V179.066H597.304V177.464H597.855Z" fill="#F0F0F0"/>
<path d="M508.77 188.951L509.957 188.956C513.107 188.956 516.301 186.452 516.301 183.823C516.301 181.193 513.109 179.061 509.957 179.061H501.992V195.107H506.089V179.956C507.318 179.956 509.153 179.96 509.957 179.96C511.867 179.96 512.202 181.555 512.202 183.823C512.202 186.09 511.872 188 510.037 188.057H506.325L514.407 195.105H515.783L508.77 188.951Z" fill="#F0F0F0"/>
<path d="M481.955 179.061L477.908 189.455L473.02 179.061L468.962 189.484L464.097 179.061H460L467.635 195.418L471.696 184.989L476.595 195.418L482.927 179.061H481.955Z" fill="#F0F0F0"/>
<path d="M564.235 179.958V179.061H552.78V195.105H564.235V194.195H556.879V187.361L562.076 187.363V186.466H556.879V179.954L564.235 179.958Z" fill="#F0F0F0"/>
<path d="M595.605 179.061H594.227L585.608 187.969V179.061H581.511V195.105H585.608V189.442L587.636 187.335L593.066 195.105H597.163L590.018 184.861L595.605 179.061Z" fill="#F0F0F0"/>
<path d="M518.359 179.061V195.105H522.458V189.442L524.095 187.742L529.24 195.105H533.375L526.496 185.246L532.452 179.061H531.077L522.458 187.969V179.061H518.359Z" fill="#F0F0F0"/>
<path d="M542.442 179.061H534.952V195.107H542.442C546.875 195.107 551.107 191.521 551.107 187.087C551.107 182.653 546.875 179.061 542.442 179.061ZM542.442 194.214H539.049V179.958H542.442C545.07 179.958 547.01 183.15 547.01 187.085C547.01 191.02 545.07 194.214 542.442 194.214Z" fill="#F0F0F0"/>
<path d="M500.228 187.087C500.228 182.485 495.858 178.754 491.256 178.754C486.654 178.754 482.285 182.485 482.285 187.087C482.285 191.689 486.654 195.42 491.256 195.42C495.858 195.42 500.228 191.689 500.228 187.087ZM486.382 187.087C486.382 183 488.528 179.653 491.256 179.653C493.985 179.653 496.131 183.001 496.131 187.087C496.131 191.172 493.985 194.52 491.256 194.52C488.528 194.52 486.382 191.172 486.382 187.087Z" fill="#F0F0F0"/>
<path d="M574.744 194.147C574.368 194.238 573.999 194.288 573.644 194.288C573.252 194.288 572.869 194.225 572.501 194.113C570.384 193.343 568.94 190.492 568.94 187.087C568.94 183.682 570.386 180.831 572.501 180.061C572.869 179.951 573.252 179.888 573.644 179.888C573.999 179.888 574.366 179.937 574.744 180.027C575.897 180.383 576.968 181.265 577.821 182.481L579.216 181.149C577.758 179.781 575.801 178.935 573.644 178.935C569.143 178.935 564.854 182.584 564.854 187.087C564.854 191.59 569.142 195.237 573.644 195.237C575.889 195.237 577.922 194.328 579.395 192.861L577.957 191.487C577.088 192.807 575.958 193.772 574.742 194.147H574.744Z" fill="#F0F0F0"/>
<defs>
<clipPath id="clip0_42_138">
<rect width="227.401" height="30.5343" fill="white" transform="translate(0.872528)"/>
</clipPath>
</defs>
</svg>
